{
	"patcher" : 	{
		"fileversion" : 1,
		"rect" : [ 687.0, 44.0, 618.0, 471.0 ],
		"bglocked" : 0,
		"defrect" : [ 687.0, 44.0, 618.0, 471.0 ],
		"openrect" : [ 0.0, 0.0, 0.0, 0.0 ],
		"openinpresentation" : 0,
		"default_fontsize" : 10.0,
		"default_fontface" : 0,
		"default_fontname" : "Arial",
		"gridonopen" : 0,
		"gridsize" : [ 15.0, 15.0 ],
		"gridsnaponopen" : 0,
		"toolbarvisible" : 1,
		"boxanimatetime" : 200,
		"imprint" : 0,
		"enablehscroll" : 1,
		"enablevscroll" : 1,
		"devicewidth" : 0.0,
		"boxes" : [ 			{
				"box" : 				{
					"maxclass" : "comment",
					"text" : "jit.spill sends the values for each pixel as a list -- these are plane-by-plane, one each for alpha, red, green, and blue.",
					"linecount" : 3,
					"patching_rect" : [ 315.0, 285.0, 248.0, 41.0 ],
					"id" : "obj-31",
					"numinlets" : 1,
					"fontsize" : 10.0,
					"numoutlets" : 0,
					"fontname" : "Arial"
				}

			}
, 			{
				"box" : 				{
					"maxclass" : "comment",
					"text" : "BLUE",
					"patching_rect" : [ 510.0, 360.0, 46.0, 18.0 ],
					"id" : "obj-29",
					"numinlets" : 1,
					"fontsize" : 10.0,
					"numoutlets" : 0,
					"fontname" : "Arial"
				}

			}
, 			{
				"box" : 				{
					"maxclass" : "comment",
					"text" : "GREEN",
					"patching_rect" : [ 330.0, 360.0, 46.0, 18.0 ],
					"id" : "obj-28",
					"numinlets" : 1,
					"fontsize" : 10.0,
					"numoutlets" : 0,
					"fontname" : "Arial"
				}

			}
, 			{
				"box" : 				{
					"maxclass" : "comment",
					"text" : "RED",
					"patching_rect" : [ 150.0, 360.0, 46.0, 18.0 ],
					"id" : "obj-27",
					"numinlets" : 1,
					"fontsize" : 10.0,
					"numoutlets" : 0,
					"fontname" : "Arial"
				}

			}
, 			{
				"box" : 				{
					"maxclass" : "message",
					"patching_rect" : [ 390.0, 390.0, 163.0, 16.0 ],
					"id" : "obj-18",
					"numinlets" : 2,
					"fontsize" : 10.0,
					"numoutlets" : 1,
					"outlettype" : [ "" ],
					"fontname" : "Arial"
				}

			}
, 			{
				"box" : 				{
					"maxclass" : "newobj",
					"text" : "jit.spill @plane 3",
					"patching_rect" : [ 390.0, 360.0, 83.0, 18.0 ],
					"id" : "obj-19",
					"numinlets" : 1,
					"fontsize" : 10.0,
					"numoutlets" : 2,
					"outlettype" : [ "", "" ],
					"fontname" : "Arial"
				}

			}
, 			{
				"box" : 				{
					"maxclass" : "message",
					"patching_rect" : [ 210.0, 390.0, 163.0, 16.0 ],
					"id" : "obj-17",
					"numinlets" : 2,
					"fontsize" : 10.0,
					"numoutlets" : 1,
					"outlettype" : [ "" ],
					"fontname" : "Arial"
				}

			}
, 			{
				"box" : 				{
					"maxclass" : "newobj",
					"text" : "jit.spill @plane 2",
					"patching_rect" : [ 210.0, 360.0, 83.0, 18.0 ],
					"id" : "obj-16",
					"numinlets" : 1,
					"fontsize" : 10.0,
					"numoutlets" : 2,
					"outlettype" : [ "", "" ],
					"fontname" : "Arial"
				}

			}
, 			{
				"box" : 				{
					"maxclass" : "message",
					"patching_rect" : [ 30.0, 390.0, 163.0, 16.0 ],
					"id" : "obj-15",
					"numinlets" : 2,
					"fontsize" : 10.0,
					"numoutlets" : 1,
					"outlettype" : [ "" ],
					"fontname" : "Arial"
				}

			}
, 			{
				"box" : 				{
					"maxclass" : "newobj",
					"text" : "jit.spill @plane 1",
					"patching_rect" : [ 30.0, 360.0, 83.0, 18.0 ],
					"id" : "obj-13",
					"numinlets" : 1,
					"fontsize" : 10.0,
					"numoutlets" : 2,
					"outlettype" : [ "", "" ],
					"fontname" : "Arial"
				}

			}
, 			{
				"box" : 				{
					"maxclass" : "comment",
					"text" : "read a movie file",
					"patching_rect" : [ 105.0, 240.0, 87.0, 18.0 ],
					"id" : "obj-6",
					"numinlets" : 1,
					"fontsize" : 10.0,
					"numoutlets" : 0,
					"fontname" : "Arial"
				}

			}
, 			{
				"box" : 				{
					"maxclass" : "comment",
					"text" : "start.stop",
					"patching_rect" : [ 30.0, 240.0, 50.0, 18.0 ],
					"id" : "obj-8",
					"numinlets" : 1,
					"fontsize" : 10.0,
					"numoutlets" : 0,
					"fontname" : "Arial"
				}

			}
, 			{
				"box" : 				{
					"maxclass" : "message",
					"text" : "read",
					"patching_rect" : [ 105.0, 270.0, 32.5, 16.0 ],
					"id" : "obj-9",
					"numinlets" : 2,
					"fontsize" : 10.0,
					"numoutlets" : 1,
					"outlettype" : [ "" ],
					"fontname" : "Arial"
				}

			}
, 			{
				"box" : 				{
					"maxclass" : "toggle",
					"patching_rect" : [ 30.0, 270.0, 20.0, 20.0 ],
					"id" : "obj-10",
					"numinlets" : 1,
					"numoutlets" : 1,
					"outlettype" : [ "int" ]
				}

			}
, 			{
				"box" : 				{
					"maxclass" : "newobj",
					"text" : "qmetro 33",
					"patching_rect" : [ 30.0, 300.0, 56.0, 18.0 ],
					"id" : "obj-11",
					"numinlets" : 2,
					"fontsize" : 10.0,
					"numoutlets" : 1,
					"outlettype" : [ "bang" ],
					"fontname" : "Arial"
				}

			}
, 			{
				"box" : 				{
					"maxclass" : "newobj",
					"text" : "jit.qt.movie 320 240",
					"patching_rect" : [ 30.0, 330.0, 97.0, 18.0 ],
					"id" : "obj-12",
					"numinlets" : 1,
					"fontsize" : 10.0,
					"numoutlets" : 2,
					"outlettype" : [ "jit_matrix", "" ],
					"fontname" : "Arial"
				}

			}
, 			{
				"box" : 				{
					"maxclass" : "comment",
					"text" : "When you load and play a movie file, you will notice that it just sends a weird mash of a letter and numbers.\n\nThis is because Jitter doesn't actually send the video file itself through the patch-cords.  Rather, it sends a symbol that allows Jitter to find that stream of numbers elsewhere on the computer, thereby speeding up the processing.\n\nIn a few examples, we'll take a look inside those numbers to alter and process them.",
					"linecount" : 12,
					"patching_rect" : [ 315.0, 60.0, 245.0, 144.0 ],
					"id" : "obj-7",
					"numinlets" : 1,
					"fontsize" : 10.0,
					"numoutlets" : 0,
					"fontname" : "Arial"
				}

			}
, 			{
				"box" : 				{
					"maxclass" : "comment",
					"text" : "< open the Max window to view",
					"patching_rect" : [ 75.0, 150.0, 150.0, 18.0 ],
					"id" : "obj-5",
					"numinlets" : 1,
					"fontsize" : 10.0,
					"numoutlets" : 0,
					"fontname" : "Arial"
				}

			}
, 			{
				"box" : 				{
					"maxclass" : "newobj",
					"text" : "print",
					"patching_rect" : [ 30.0, 150.0, 30.0, 18.0 ],
					"id" : "obj-3",
					"numinlets" : 1,
					"fontsize" : 10.0,
					"numoutlets" : 0,
					"fontname" : "Arial"
				}

			}
, 			{
				"box" : 				{
					"maxclass" : "comment",
					"text" : "read a movie file",
					"patching_rect" : [ 105.0, 30.0, 87.0, 18.0 ],
					"id" : "obj-21",
					"numinlets" : 1,
					"fontsize" : 10.0,
					"numoutlets" : 0,
					"fontname" : "Arial"
				}

			}
, 			{
				"box" : 				{
					"maxclass" : "comment",
					"text" : "start.stop",
					"patching_rect" : [ 30.0, 30.0, 50.0, 18.0 ],
					"id" : "obj-22",
					"numinlets" : 1,
					"fontsize" : 10.0,
					"numoutlets" : 0,
					"fontname" : "Arial"
				}

			}
, 			{
				"box" : 				{
					"maxclass" : "message",
					"text" : "read",
					"patching_rect" : [ 105.0, 60.0, 32.5, 16.0 ],
					"id" : "obj-23",
					"numinlets" : 2,
					"fontsize" : 10.0,
					"numoutlets" : 1,
					"outlettype" : [ "" ],
					"fontname" : "Arial"
				}

			}
, 			{
				"box" : 				{
					"maxclass" : "toggle",
					"patching_rect" : [ 30.0, 60.0, 20.0, 20.0 ],
					"id" : "obj-24",
					"numinlets" : 1,
					"numoutlets" : 1,
					"outlettype" : [ "int" ]
				}

			}
, 			{
				"box" : 				{
					"maxclass" : "newobj",
					"text" : "qmetro 33",
					"patching_rect" : [ 30.0, 90.0, 56.0, 18.0 ],
					"id" : "obj-25",
					"numinlets" : 2,
					"fontsize" : 10.0,
					"numoutlets" : 1,
					"outlettype" : [ "bang" ],
					"fontname" : "Arial"
				}

			}
, 			{
				"box" : 				{
					"maxclass" : "newobj",
					"text" : "jit.qt.movie 320 240",
					"patching_rect" : [ 30.0, 120.0, 97.0, 18.0 ],
					"id" : "obj-26",
					"numinlets" : 1,
					"fontsize" : 10.0,
					"numoutlets" : 2,
					"outlettype" : [ "jit_matrix", "" ],
					"fontname" : "Arial"
				}

			}
, 			{
				"box" : 				{
					"maxclass" : "comment",
					"text" : "WHAT IS A DIGITAL VIDEO?",
					"patching_rect" : [ 315.0, 30.0, 150.0, 18.0 ],
					"id" : "obj-2",
					"numinlets" : 1,
					"fontsize" : 10.0,
					"numoutlets" : 0,
					"fontname" : "Arial"
				}

			}
 ],
		"lines" : [ 			{
				"patchline" : 				{
					"source" : [ "obj-26", 0 ],
					"destination" : [ "obj-3", 0 ],
					"hidden" : 0,
					"midpoints" : [  ]
				}

			}
, 			{
				"patchline" : 				{
					"source" : [ "obj-25", 0 ],
					"destination" : [ "obj-26", 0 ],
					"hidden" : 0,
					"midpoints" : [  ]
				}

			}
, 			{
				"patchline" : 				{
					"source" : [ "obj-23", 0 ],
					"destination" : [ "obj-26", 0 ],
					"hidden" : 0,
					"midpoints" : [ 114.5, 112.5, 39.5, 112.5 ]
				}

			}
, 			{
				"patchline" : 				{
					"source" : [ "obj-24", 0 ],
					"destination" : [ "obj-25", 0 ],
					"hidden" : 0,
					"midpoints" : [  ]
				}

			}
, 			{
				"patchline" : 				{
					"source" : [ "obj-10", 0 ],
					"destination" : [ "obj-11", 0 ],
					"hidden" : 0,
					"midpoints" : [  ]
				}

			}
, 			{
				"patchline" : 				{
					"source" : [ "obj-9", 0 ],
					"destination" : [ "obj-12", 0 ],
					"hidden" : 0,
					"midpoints" : [ 114.5, 322.5, 39.5, 322.5 ]
				}

			}
, 			{
				"patchline" : 				{
					"source" : [ "obj-11", 0 ],
					"destination" : [ "obj-12", 0 ],
					"hidden" : 0,
					"midpoints" : [  ]
				}

			}
, 			{
				"patchline" : 				{
					"source" : [ "obj-12", 0 ],
					"destination" : [ "obj-13", 0 ],
					"hidden" : 0,
					"midpoints" : [  ]
				}

			}
, 			{
				"patchline" : 				{
					"source" : [ "obj-13", 0 ],
					"destination" : [ "obj-15", 1 ],
					"hidden" : 0,
					"midpoints" : [ 39.5, 383.5, 183.5, 383.5 ]
				}

			}
, 			{
				"patchline" : 				{
					"source" : [ "obj-12", 0 ],
					"destination" : [ "obj-16", 0 ],
					"hidden" : 0,
					"midpoints" : [ 39.5, 353.5, 219.5, 353.5 ]
				}

			}
, 			{
				"patchline" : 				{
					"source" : [ "obj-16", 0 ],
					"destination" : [ "obj-17", 1 ],
					"hidden" : 0,
					"midpoints" : [ 219.5, 383.5, 363.5, 383.5 ]
				}

			}
, 			{
				"patchline" : 				{
					"source" : [ "obj-12", 0 ],
					"destination" : [ "obj-19", 0 ],
					"hidden" : 0,
					"midpoints" : [ 39.5, 353.5, 399.5, 353.5 ]
				}

			}
, 			{
				"patchline" : 				{
					"source" : [ "obj-19", 0 ],
					"destination" : [ "obj-18", 1 ],
					"hidden" : 0,
					"midpoints" : [ 399.5, 383.5, 543.5, 383.5 ]
				}

			}
 ]
	}

}
