{
	"patcher" : 	{
		"fileversion" : 1,
		"rect" : [ 743.0, 44.0, 591.0, 607.0 ],
		"bglocked" : 0,
		"defrect" : [ 743.0, 44.0, 591.0, 607.0 ],
		"openrect" : [ 0.0, 0.0, 0.0, 0.0 ],
		"openinpresentation" : 0,
		"default_fontsize" : 10.0,
		"default_fontface" : 0,
		"default_fontname" : "Arial",
		"gridonopen" : 0,
		"gridsize" : [ 15.0, 15.0 ],
		"gridsnaponopen" : 0,
		"toolbarvisible" : 1,
		"boxanimatetime" : 200,
		"imprint" : 0,
		"enablehscroll" : 1,
		"enablevscroll" : 1,
		"devicewidth" : 0.0,
		"boxes" : [ 			{
				"box" : 				{
					"maxclass" : "comment",
					"text" : "open subpatch to see a more sophisticated example",
					"linecount" : 2,
					"patching_rect" : [ 360.0, 465.0, 133.0, 29.0 ],
					"id" : "obj-5",
					"numinlets" : 1,
					"fontsize" : 10.0,
					"numoutlets" : 0,
					"fontname" : "Arial"
				}

			}
, 			{
				"box" : 				{
					"maxclass" : "newobj",
					"text" : "p settingLoopPoints",
					"patching_rect" : [ 360.0, 510.0, 98.0, 18.0 ],
					"id" : "obj-35",
					"numinlets" : 0,
					"fontsize" : 10.0,
					"numoutlets" : 0,
					"fontname" : "Arial",
					"patcher" : 					{
						"fileversion" : 1,
						"rect" : [ 331.0, 69.0, 1063.0, 710.0 ],
						"bglocked" : 0,
						"defrect" : [ 331.0, 69.0, 1063.0, 710.0 ],
						"openrect" : [ 0.0, 0.0, 0.0, 0.0 ],
						"openinpresentation" : 0,
						"default_fontsize" : 10.0,
						"default_fontface" : 0,
						"default_fontname" : "Arial",
						"gridonopen" : 0,
						"gridsize" : [ 15.0, 15.0 ],
						"gridsnaponopen" : 0,
						"toolbarvisible" : 1,
						"boxanimatetime" : 200,
						"imprint" : 0,
						"enablehscroll" : 1,
						"enablevscroll" : 1,
						"devicewidth" : 0.0,
						"boxes" : [ 							{
								"box" : 								{
									"maxclass" : "newobj",
									"text" : "r looppoints",
									"patching_rect" : [ 135.0, 90.0, 62.0, 18.0 ],
									"id" : "obj-63",
									"numinlets" : 0,
									"fontsize" : 10.0,
									"numoutlets" : 1,
									"outlettype" : [ "" ],
									"fontname" : "Arial"
								}

							}
, 							{
								"box" : 								{
									"maxclass" : "newobj",
									"text" : "s looppoints",
									"patching_rect" : [ 720.0, 270.0, 64.0, 18.0 ],
									"id" : "obj-61",
									"numinlets" : 1,
									"fontsize" : 10.0,
									"numoutlets" : 0,
									"fontname" : "Arial"
								}

							}
, 							{
								"box" : 								{
									"maxclass" : "comment",
									"text" : "combine into a list",
									"patching_rect" : [ 885.0, 240.0, 92.0, 18.0 ],
									"id" : "obj-60",
									"numinlets" : 1,
									"fontsize" : 10.0,
									"numoutlets" : 0,
									"fontname" : "Arial"
								}

							}
, 							{
								"box" : 								{
									"maxclass" : "comment",
									"text" : "set the size of the slider",
									"patching_rect" : [ 795.0, 150.0, 119.0, 18.0 ],
									"id" : "obj-58",
									"numinlets" : 1,
									"fontsize" : 10.0,
									"numoutlets" : 0,
									"fontname" : "Arial"
								}

							}
, 							{
								"box" : 								{
									"maxclass" : "newobj",
									"text" : "prepend size",
									"patching_rect" : [ 720.0, 150.0, 68.0, 18.0 ],
									"id" : "obj-56",
									"numinlets" : 1,
									"fontsize" : 10.0,
									"numoutlets" : 1,
									"outlettype" : [ "" ],
									"fontname" : "Arial"
								}

							}
, 							{
								"box" : 								{
									"maxclass" : "comment",
									"text" : "set looppoints for movie",
									"patching_rect" : [ 885.0, 195.0, 119.0, 18.0 ],
									"id" : "obj-54",
									"numinlets" : 1,
									"fontsize" : 10.0,
									"numoutlets" : 0,
									"fontname" : "Arial"
								}

							}
, 							{
								"box" : 								{
									"maxclass" : "newobj",
									"text" : "pak looppoints 0 0",
									"patching_rect" : [ 720.0, 240.0, 155.0, 18.0 ],
									"id" : "obj-51",
									"numinlets" : 3,
									"fontsize" : 10.0,
									"numoutlets" : 1,
									"outlettype" : [ "" ],
									"fontname" : "Arial"
								}

							}
, 							{
								"box" : 								{
									"maxclass" : "rslider",
									"patching_rect" : [ 720.0, 195.0, 155.0, 28.0 ],
									"id" : "obj-12",
									"numinlets" : 2,
									"numoutlets" : 2,
									"size" : 7240.0,
									"outlettype" : [ "", "" ]
								}

							}
, 							{
								"box" : 								{
									"maxclass" : "comment",
									"text" : "total frames",
									"patching_rect" : [ 450.0, 300.0, 64.0, 18.0 ],
									"id" : "obj-50",
									"numinlets" : 1,
									"fontsize" : 10.0,
									"numoutlets" : 0,
									"fontname" : "Arial"
								}

							}
, 							{
								"box" : 								{
									"maxclass" : "number",
									"patching_rect" : [ 390.0, 300.0, 50.0, 18.0 ],
									"id" : "obj-48",
									"numinlets" : 1,
									"fontsize" : 10.0,
									"numoutlets" : 2,
									"outlettype" : [ "int", "bang" ],
									"fontname" : "Arial"
								}

							}
, 							{
								"box" : 								{
									"maxclass" : "comment",
									"text" : "total time / units per frame",
									"patching_rect" : [ 525.0, 270.0, 132.0, 18.0 ],
									"id" : "obj-46",
									"numinlets" : 1,
									"fontsize" : 10.0,
									"numoutlets" : 0,
									"fontname" : "Arial"
								}

							}
, 							{
								"box" : 								{
									"maxclass" : "comment",
									"text" : "time units per frame",
									"patching_rect" : [ 555.0, 240.0, 99.0, 18.0 ],
									"id" : "obj-45",
									"numinlets" : 1,
									"fontsize" : 10.0,
									"numoutlets" : 0,
									"fontname" : "Arial"
								}

							}
, 							{
								"box" : 								{
									"maxclass" : "newobj",
									"text" : "/",
									"patching_rect" : [ 390.0, 270.0, 123.5, 18.0 ],
									"id" : "obj-43",
									"numinlets" : 2,
									"fontsize" : 10.0,
									"numoutlets" : 1,
									"outlettype" : [ "int" ],
									"fontname" : "Arial"
								}

							}
, 							{
								"box" : 								{
									"maxclass" : "comment",
									"text" : "current frame",
									"patching_rect" : [ 225.0, 300.0, 70.0, 18.0 ],
									"id" : "obj-42",
									"numinlets" : 1,
									"fontsize" : 10.0,
									"numoutlets" : 0,
									"fontname" : "Arial"
								}

							}
, 							{
								"box" : 								{
									"maxclass" : "number",
									"patching_rect" : [ 165.0, 300.0, 50.0, 18.0 ],
									"id" : "obj-40",
									"numinlets" : 1,
									"fontsize" : 10.0,
									"numoutlets" : 2,
									"outlettype" : [ "int", "bang" ],
									"fontname" : "Arial"
								}

							}
, 							{
								"box" : 								{
									"maxclass" : "number",
									"patching_rect" : [ 495.0, 240.0, 50.0, 18.0 ],
									"id" : "obj-38",
									"numinlets" : 1,
									"fontsize" : 10.0,
									"numoutlets" : 2,
									"outlettype" : [ "int", "bang" ],
									"fontname" : "Arial"
								}

							}
, 							{
								"box" : 								{
									"maxclass" : "newobj",
									"text" : "/",
									"patching_rect" : [ 165.0, 270.0, 153.5, 18.0 ],
									"id" : "obj-36",
									"numinlets" : 2,
									"fontsize" : 10.0,
									"numoutlets" : 1,
									"outlettype" : [ "int" ],
									"fontname" : "Arial"
								}

							}
, 							{
								"box" : 								{
									"maxclass" : "comment",
									"text" : "timescale / fps",
									"patching_rect" : [ 600.0, 210.0, 73.0, 18.0 ],
									"id" : "obj-35",
									"numinlets" : 1,
									"fontsize" : 10.0,
									"numoutlets" : 0,
									"fontname" : "Arial"
								}

							}
, 							{
								"box" : 								{
									"maxclass" : "newobj",
									"text" : "/ 1.",
									"patching_rect" : [ 495.0, 210.0, 93.5, 18.0 ],
									"id" : "obj-26",
									"numinlets" : 2,
									"fontsize" : 10.0,
									"numoutlets" : 1,
									"outlettype" : [ "float" ],
									"fontname" : "Arial"
								}

							}
, 							{
								"box" : 								{
									"maxclass" : "comment",
									"text" : "fps",
									"patching_rect" : [ 630.0, 180.0, 29.0, 18.0 ],
									"id" : "obj-25",
									"numinlets" : 1,
									"fontsize" : 10.0,
									"numoutlets" : 0,
									"fontname" : "Arial"
								}

							}
, 							{
								"box" : 								{
									"maxclass" : "comment",
									"text" : "timescale",
									"patching_rect" : [ 435.0, 180.0, 52.0, 18.0 ],
									"id" : "obj-24",
									"numinlets" : 1,
									"fontsize" : 10.0,
									"numoutlets" : 0,
									"fontname" : "Arial"
								}

							}
, 							{
								"box" : 								{
									"maxclass" : "number",
									"patching_rect" : [ 495.0, 180.0, 50.0, 18.0 ],
									"id" : "obj-22",
									"numinlets" : 1,
									"fontsize" : 10.0,
									"numoutlets" : 2,
									"outlettype" : [ "int", "bang" ],
									"fontname" : "Arial"
								}

							}
, 							{
								"box" : 								{
									"maxclass" : "comment",
									"text" : "duration",
									"patching_rect" : [ 330.0, 240.0, 47.0, 18.0 ],
									"id" : "obj-20",
									"numinlets" : 1,
									"fontsize" : 10.0,
									"numoutlets" : 0,
									"fontname" : "Arial"
								}

							}
, 							{
								"box" : 								{
									"maxclass" : "number",
									"patching_rect" : [ 390.0, 240.0, 50.0, 18.0 ],
									"id" : "obj-19",
									"numinlets" : 1,
									"fontsize" : 10.0,
									"numoutlets" : 2,
									"outlettype" : [ "int", "bang" ],
									"fontname" : "Arial"
								}

							}
, 							{
								"box" : 								{
									"maxclass" : "comment",
									"text" : "current time",
									"patching_rect" : [ 225.0, 240.0, 63.0, 18.0 ],
									"id" : "obj-17",
									"numinlets" : 1,
									"fontsize" : 10.0,
									"numoutlets" : 0,
									"fontname" : "Arial"
								}

							}
, 							{
								"box" : 								{
									"maxclass" : "comment",
									"text" : "send message to get info automatically",
									"linecount" : 3,
									"patching_rect" : [ 60.0, 240.0, 76.0, 41.0 ],
									"id" : "obj-15",
									"numinlets" : 1,
									"fontsize" : 10.0,
									"numoutlets" : 0,
									"fontname" : "Arial"
								}

							}
, 							{
								"box" : 								{
									"maxclass" : "flonum",
									"patching_rect" : [ 570.0, 180.0, 50.0, 18.0 ],
									"id" : "obj-13",
									"numinlets" : 1,
									"fontsize" : 10.0,
									"numoutlets" : 2,
									"outlettype" : [ "float", "bang" ],
									"fontname" : "Arial"
								}

							}
, 							{
								"box" : 								{
									"maxclass" : "number",
									"patching_rect" : [ 165.0, 240.0, 50.0, 18.0 ],
									"id" : "obj-10",
									"numinlets" : 1,
									"fontsize" : 10.0,
									"numoutlets" : 2,
									"outlettype" : [ "int", "bang" ],
									"fontname" : "Arial"
								}

							}
, 							{
								"box" : 								{
									"maxclass" : "message",
									"text" : "getfps, gettimescale, getduration, getrate",
									"linecount" : 4,
									"patching_rect" : [ 60.0, 180.0, 70.0, 50.0 ],
									"id" : "obj-8",
									"numinlets" : 2,
									"fontsize" : 10.0,
									"numoutlets" : 1,
									"outlettype" : [ "" ],
									"fontname" : "Arial"
								}

							}
, 							{
								"box" : 								{
									"maxclass" : "newobj",
									"text" : "t gettime b",
									"patching_rect" : [ 30.0, 90.0, 57.0, 18.0 ],
									"id" : "obj-3",
									"numinlets" : 1,
									"fontsize" : 10.0,
									"numoutlets" : 2,
									"outlettype" : [ "", "bang" ],
									"fontname" : "Arial"
								}

							}
, 							{
								"box" : 								{
									"maxclass" : "jit.fpsgui",
									"patching_rect" : [ 30.0, 645.0, 80.0, 33.0 ],
									"id" : "obj-31",
									"numinlets" : 1,
									"fontsize" : 10.0,
									"numoutlets" : 2,
									"outlettype" : [ "", "" ],
									"fontname" : "Arial"
								}

							}
, 							{
								"box" : 								{
									"maxclass" : "newobj",
									"text" : "route read time duration timescale fps looppoints",
									"patching_rect" : [ 120.0, 150.0, 290.0, 18.0 ],
									"id" : "obj-11",
									"numinlets" : 1,
									"fontsize" : 10.0,
									"numoutlets" : 7,
									"outlettype" : [ "", "", "", "", "", "", "" ],
									"fontname" : "Arial"
								}

							}
, 							{
								"box" : 								{
									"maxclass" : "jit.pwindow",
									"patching_rect" : [ 30.0, 390.0, 316.0, 237.0 ],
									"id" : "obj-7",
									"numinlets" : 1,
									"numoutlets" : 2,
									"outlettype" : [ "", "" ]
								}

							}
, 							{
								"box" : 								{
									"maxclass" : "message",
									"text" : "read",
									"patching_rect" : [ 105.0, 30.0, 32.5, 16.0 ],
									"id" : "obj-6",
									"numinlets" : 2,
									"fontsize" : 10.0,
									"numoutlets" : 1,
									"outlettype" : [ "" ],
									"fontname" : "Arial"
								}

							}
, 							{
								"box" : 								{
									"maxclass" : "toggle",
									"patching_rect" : [ 30.0, 30.0, 20.0, 20.0 ],
									"id" : "obj-4",
									"numinlets" : 1,
									"numoutlets" : 1,
									"outlettype" : [ "int" ]
								}

							}
, 							{
								"box" : 								{
									"maxclass" : "newobj",
									"text" : "qmetro 33",
									"patching_rect" : [ 30.0, 60.0, 56.0, 18.0 ],
									"id" : "obj-2",
									"numinlets" : 2,
									"fontsize" : 10.0,
									"numoutlets" : 1,
									"outlettype" : [ "bang" ],
									"fontname" : "Arial"
								}

							}
, 							{
								"box" : 								{
									"maxclass" : "newobj",
									"text" : "jit.qt.movie 320 240 @vol 0.",
									"patching_rect" : [ 30.0, 120.0, 134.0, 18.0 ],
									"id" : "obj-1",
									"numinlets" : 1,
									"fontsize" : 10.0,
									"numoutlets" : 2,
									"outlettype" : [ "jit_matrix", "" ],
									"fontname" : "Arial"
								}

							}
 ],
						"lines" : [ 							{
								"patchline" : 								{
									"source" : [ "obj-63", 0 ],
									"destination" : [ "obj-1", 0 ],
									"hidden" : 0,
									"midpoints" : [ 144.5, 113.5, 39.5, 113.5 ]
								}

							}
, 							{
								"patchline" : 								{
									"source" : [ "obj-1", 1 ],
									"destination" : [ "obj-11", 0 ],
									"hidden" : 0,
									"midpoints" : [ 154.5, 143.5, 129.5, 143.5 ]
								}

							}
, 							{
								"patchline" : 								{
									"source" : [ "obj-8", 0 ],
									"destination" : [ "obj-1", 0 ],
									"hidden" : 1,
									"midpoints" : [  ]
								}

							}
, 							{
								"patchline" : 								{
									"source" : [ "obj-3", 1 ],
									"destination" : [ "obj-1", 0 ],
									"hidden" : 0,
									"midpoints" : [ 77.5, 113.5, 39.5, 113.5 ]
								}

							}
, 							{
								"patchline" : 								{
									"source" : [ "obj-3", 0 ],
									"destination" : [ "obj-1", 0 ],
									"hidden" : 0,
									"midpoints" : [  ]
								}

							}
, 							{
								"patchline" : 								{
									"source" : [ "obj-6", 0 ],
									"destination" : [ "obj-1", 0 ],
									"hidden" : 0,
									"midpoints" : [ 114.5, 113.5, 39.5, 113.5 ]
								}

							}
, 							{
								"patchline" : 								{
									"source" : [ "obj-1", 0 ],
									"destination" : [ "obj-7", 0 ],
									"hidden" : 0,
									"midpoints" : [  ]
								}

							}
, 							{
								"patchline" : 								{
									"source" : [ "obj-7", 0 ],
									"destination" : [ "obj-31", 0 ],
									"hidden" : 0,
									"midpoints" : [  ]
								}

							}
, 							{
								"patchline" : 								{
									"source" : [ "obj-4", 0 ],
									"destination" : [ "obj-2", 0 ],
									"hidden" : 0,
									"midpoints" : [  ]
								}

							}
, 							{
								"patchline" : 								{
									"source" : [ "obj-2", 0 ],
									"destination" : [ "obj-3", 0 ],
									"hidden" : 0,
									"midpoints" : [  ]
								}

							}
, 							{
								"patchline" : 								{
									"source" : [ "obj-11", 4 ],
									"destination" : [ "obj-13", 0 ],
									"hidden" : 0,
									"midpoints" : [ 310.166656, 173.5, 579.5, 173.5 ]
								}

							}
, 							{
								"patchline" : 								{
									"source" : [ "obj-11", 3 ],
									"destination" : [ "obj-22", 0 ],
									"hidden" : 0,
									"midpoints" : [ 265.0, 173.5, 504.5, 173.5 ]
								}

							}
, 							{
								"patchline" : 								{
									"source" : [ "obj-11", 2 ],
									"destination" : [ "obj-19", 0 ],
									"hidden" : 0,
									"midpoints" : [ 219.833328, 226.5, 399.5, 226.5 ]
								}

							}
, 							{
								"patchline" : 								{
									"source" : [ "obj-11", 1 ],
									"destination" : [ "obj-10", 0 ],
									"hidden" : 0,
									"midpoints" : [  ]
								}

							}
, 							{
								"patchline" : 								{
									"source" : [ "obj-11", 0 ],
									"destination" : [ "obj-8", 0 ],
									"hidden" : 0,
									"midpoints" : [ 129.5, 173.5, 69.5, 173.5 ]
								}

							}
, 							{
								"patchline" : 								{
									"source" : [ "obj-22", 0 ],
									"destination" : [ "obj-26", 0 ],
									"hidden" : 0,
									"midpoints" : [  ]
								}

							}
, 							{
								"patchline" : 								{
									"source" : [ "obj-13", 0 ],
									"destination" : [ "obj-26", 1 ],
									"hidden" : 0,
									"midpoints" : [  ]
								}

							}
, 							{
								"patchline" : 								{
									"source" : [ "obj-10", 0 ],
									"destination" : [ "obj-36", 0 ],
									"hidden" : 0,
									"midpoints" : [  ]
								}

							}
, 							{
								"patchline" : 								{
									"source" : [ "obj-26", 0 ],
									"destination" : [ "obj-38", 0 ],
									"hidden" : 0,
									"midpoints" : [  ]
								}

							}
, 							{
								"patchline" : 								{
									"source" : [ "obj-38", 0 ],
									"destination" : [ "obj-36", 1 ],
									"hidden" : 0,
									"midpoints" : [ 504.5, 265.5, 309.0, 265.5 ]
								}

							}
, 							{
								"patchline" : 								{
									"source" : [ "obj-36", 0 ],
									"destination" : [ "obj-40", 0 ],
									"hidden" : 0,
									"midpoints" : [  ]
								}

							}
, 							{
								"patchline" : 								{
									"source" : [ "obj-38", 0 ],
									"destination" : [ "obj-43", 1 ],
									"hidden" : 0,
									"midpoints" : [  ]
								}

							}
, 							{
								"patchline" : 								{
									"source" : [ "obj-19", 0 ],
									"destination" : [ "obj-43", 0 ],
									"hidden" : 0,
									"midpoints" : [  ]
								}

							}
, 							{
								"patchline" : 								{
									"source" : [ "obj-43", 0 ],
									"destination" : [ "obj-48", 0 ],
									"hidden" : 0,
									"midpoints" : [  ]
								}

							}
, 							{
								"patchline" : 								{
									"source" : [ "obj-11", 5 ],
									"destination" : [ "obj-12", 0 ],
									"hidden" : 0,
									"midpoints" : [ 355.333344, 173.5, 729.5, 173.5 ]
								}

							}
, 							{
								"patchline" : 								{
									"source" : [ "obj-19", 0 ],
									"destination" : [ "obj-56", 0 ],
									"hidden" : 1,
									"midpoints" : [  ]
								}

							}
, 							{
								"patchline" : 								{
									"source" : [ "obj-56", 0 ],
									"destination" : [ "obj-12", 0 ],
									"hidden" : 0,
									"midpoints" : [  ]
								}

							}
, 							{
								"patchline" : 								{
									"source" : [ "obj-12", 0 ],
									"destination" : [ "obj-51", 1 ],
									"hidden" : 0,
									"midpoints" : [ 729.5, 231.0, 797.5, 231.0 ]
								}

							}
, 							{
								"patchline" : 								{
									"source" : [ "obj-12", 1 ],
									"destination" : [ "obj-51", 2 ],
									"hidden" : 0,
									"midpoints" : [ 865.5, 231.0, 865.5, 231.0 ]
								}

							}
, 							{
								"patchline" : 								{
									"source" : [ "obj-51", 0 ],
									"destination" : [ "obj-61", 0 ],
									"hidden" : 0,
									"midpoints" : [  ]
								}

							}
 ]
					}
,
					"saved_object_attributes" : 					{
						"default_fontsize" : 10.0,
						"fontface" : 0,
						"fontsize" : 10.0,
						"globalpatchername" : "",
						"default_fontface" : 0,
						"default_fontname" : "Arial",
						"fontname" : "Arial"
					}

				}

			}
, 			{
				"box" : 				{
					"maxclass" : "jit.fpsgui",
					"patching_rect" : [ 30.0, 540.0, 80.0, 33.0 ],
					"id" : "obj-31",
					"numinlets" : 1,
					"fontsize" : 10.0,
					"numoutlets" : 2,
					"outlettype" : [ "", "" ],
					"fontname" : "Arial"
				}

			}
, 			{
				"box" : 				{
					"maxclass" : "comment",
					"text" : "auto-resize the slider to the length in frames",
					"patching_rect" : [ 330.0, 30.0, 209.0, 18.0 ],
					"id" : "obj-30",
					"numinlets" : 1,
					"fontsize" : 10.0,
					"numoutlets" : 0,
					"fontname" : "Arial"
				}

			}
, 			{
				"box" : 				{
					"maxclass" : "comment",
					"text" : "\"scrub\" through movie",
					"patching_rect" : [ 435.0, 60.0, 107.0, 18.0 ],
					"id" : "obj-28",
					"numinlets" : 1,
					"fontsize" : 10.0,
					"numoutlets" : 0,
					"fontname" : "Arial"
				}

			}
, 			{
				"box" : 				{
					"maxclass" : "newobj",
					"text" : "prepend frame",
					"patching_rect" : [ 240.0, 90.0, 76.0, 18.0 ],
					"id" : "obj-26",
					"numinlets" : 1,
					"fontsize" : 10.0,
					"numoutlets" : 1,
					"outlettype" : [ "" ],
					"fontname" : "Arial"
				}

			}
, 			{
				"box" : 				{
					"maxclass" : "newobj",
					"text" : "prepend size",
					"patching_rect" : [ 240.0, 30.0, 68.0, 18.0 ],
					"id" : "obj-25",
					"numinlets" : 1,
					"fontsize" : 10.0,
					"numoutlets" : 1,
					"outlettype" : [ "" ],
					"fontname" : "Arial"
				}

			}
, 			{
				"box" : 				{
					"maxclass" : "slider",
					"patching_rect" : [ 240.0, 60.0, 176.0, 18.0 ],
					"id" : "obj-24",
					"numinlets" : 1,
					"numoutlets" : 1,
					"size" : 181.0,
					"outlettype" : [ "" ]
				}

			}
, 			{
				"box" : 				{
					"maxclass" : "comment",
					"text" : "total # of frames",
					"patching_rect" : [ 210.0, 210.0, 83.0, 18.0 ],
					"id" : "obj-23",
					"numinlets" : 1,
					"fontsize" : 10.0,
					"numoutlets" : 0,
					"fontname" : "Arial"
				}

			}
, 			{
				"box" : 				{
					"maxclass" : "comment",
					"text" : "when \"read\" is passed, get frame count for movie automatically",
					"linecount" : 5,
					"patching_rect" : [ 120.0, 210.0, 75.0, 64.0 ],
					"id" : "obj-20",
					"numinlets" : 1,
					"fontsize" : 10.0,
					"numoutlets" : 0,
					"fontname" : "Arial"
				}

			}
, 			{
				"box" : 				{
					"maxclass" : "comment",
					"text" : "< if messages start with the following, pass to outlet",
					"patching_rect" : [ 240.0, 150.0, 239.0, 18.0 ],
					"id" : "obj-18",
					"numinlets" : 1,
					"fontsize" : 10.0,
					"numoutlets" : 0,
					"fontname" : "Arial"
				}

			}
, 			{
				"box" : 				{
					"maxclass" : "message",
					"text" : "getframecount",
					"patching_rect" : [ 120.0, 180.0, 74.0, 16.0 ],
					"id" : "obj-16",
					"numinlets" : 2,
					"fontsize" : 10.0,
					"numoutlets" : 1,
					"outlettype" : [ "" ],
					"fontname" : "Arial"
				}

			}
, 			{
				"box" : 				{
					"maxclass" : "number",
					"patching_rect" : [ 210.0, 180.0, 50.0, 18.0 ],
					"id" : "obj-13",
					"numinlets" : 1,
					"fontsize" : 10.0,
					"numoutlets" : 2,
					"outlettype" : [ "int", "bang" ],
					"fontname" : "Arial"
				}

			}
, 			{
				"box" : 				{
					"maxclass" : "newobj",
					"text" : "route read framecount",
					"patching_rect" : [ 120.0, 150.0, 109.0, 18.0 ],
					"id" : "obj-11",
					"numinlets" : 1,
					"fontsize" : 10.0,
					"numoutlets" : 3,
					"outlettype" : [ "", "", "" ],
					"fontname" : "Arial"
				}

			}
, 			{
				"box" : 				{
					"maxclass" : "comment",
					"text" : "read a movie file",
					"patching_rect" : [ 105.0, 30.0, 87.0, 18.0 ],
					"id" : "obj-15",
					"numinlets" : 1,
					"fontsize" : 10.0,
					"numoutlets" : 0,
					"fontname" : "Arial"
				}

			}
, 			{
				"box" : 				{
					"maxclass" : "comment",
					"text" : "start.stop",
					"patching_rect" : [ 30.0, 30.0, 50.0, 18.0 ],
					"id" : "obj-14",
					"numinlets" : 1,
					"fontsize" : 10.0,
					"numoutlets" : 0,
					"fontname" : "Arial"
				}

			}
, 			{
				"box" : 				{
					"maxclass" : "jit.pwindow",
					"patching_rect" : [ 30.0, 285.0, 316.0, 237.0 ],
					"id" : "obj-7",
					"numinlets" : 1,
					"numoutlets" : 2,
					"outlettype" : [ "", "" ]
				}

			}
, 			{
				"box" : 				{
					"maxclass" : "message",
					"text" : "read",
					"patching_rect" : [ 105.0, 60.0, 32.5, 16.0 ],
					"id" : "obj-6",
					"numinlets" : 2,
					"fontsize" : 10.0,
					"numoutlets" : 1,
					"outlettype" : [ "" ],
					"fontname" : "Arial"
				}

			}
, 			{
				"box" : 				{
					"maxclass" : "toggle",
					"patching_rect" : [ 30.0, 60.0, 20.0, 20.0 ],
					"id" : "obj-4",
					"numinlets" : 1,
					"numoutlets" : 1,
					"outlettype" : [ "int" ]
				}

			}
, 			{
				"box" : 				{
					"maxclass" : "newobj",
					"text" : "qmetro 33",
					"patching_rect" : [ 30.0, 90.0, 56.0, 18.0 ],
					"id" : "obj-2",
					"numinlets" : 2,
					"fontsize" : 10.0,
					"numoutlets" : 1,
					"outlettype" : [ "bang" ],
					"fontname" : "Arial"
				}

			}
, 			{
				"box" : 				{
					"maxclass" : "newobj",
					"text" : "jit.qt.movie 320 240 @vol 0.",
					"patching_rect" : [ 30.0, 120.0, 134.0, 18.0 ],
					"id" : "obj-1",
					"numinlets" : 1,
					"fontsize" : 10.0,
					"numoutlets" : 2,
					"outlettype" : [ "jit_matrix", "" ],
					"fontname" : "Arial"
				}

			}
 ],
		"lines" : [ 			{
				"patchline" : 				{
					"source" : [ "obj-2", 0 ],
					"destination" : [ "obj-1", 0 ],
					"hidden" : 0,
					"midpoints" : [  ]
				}

			}
, 			{
				"patchline" : 				{
					"source" : [ "obj-1", 1 ],
					"destination" : [ "obj-11", 0 ],
					"hidden" : 0,
					"midpoints" : [ 154.5, 143.5, 129.5, 143.5 ]
				}

			}
, 			{
				"patchline" : 				{
					"source" : [ "obj-26", 0 ],
					"destination" : [ "obj-1", 0 ],
					"hidden" : 0,
					"midpoints" : [ 249.5, 113.5, 39.5, 113.5 ]
				}

			}
, 			{
				"patchline" : 				{
					"source" : [ "obj-16", 0 ],
					"destination" : [ "obj-1", 0 ],
					"hidden" : 1,
					"midpoints" : [  ]
				}

			}
, 			{
				"patchline" : 				{
					"source" : [ "obj-1", 0 ],
					"destination" : [ "obj-7", 0 ],
					"hidden" : 0,
					"midpoints" : [  ]
				}

			}
, 			{
				"patchline" : 				{
					"source" : [ "obj-6", 0 ],
					"destination" : [ "obj-1", 0 ],
					"hidden" : 0,
					"midpoints" : [ 114.5, 113.5, 39.5, 113.5 ]
				}

			}
, 			{
				"patchline" : 				{
					"source" : [ "obj-4", 0 ],
					"destination" : [ "obj-2", 0 ],
					"hidden" : 0,
					"midpoints" : [  ]
				}

			}
, 			{
				"patchline" : 				{
					"source" : [ "obj-13", 0 ],
					"destination" : [ "obj-25", 0 ],
					"hidden" : 1,
					"midpoints" : [  ]
				}

			}
, 			{
				"patchline" : 				{
					"source" : [ "obj-25", 0 ],
					"destination" : [ "obj-24", 0 ],
					"hidden" : 0,
					"midpoints" : [  ]
				}

			}
, 			{
				"patchline" : 				{
					"source" : [ "obj-24", 0 ],
					"destination" : [ "obj-26", 0 ],
					"hidden" : 0,
					"midpoints" : [  ]
				}

			}
, 			{
				"patchline" : 				{
					"source" : [ "obj-7", 0 ],
					"destination" : [ "obj-31", 0 ],
					"hidden" : 0,
					"midpoints" : [  ]
				}

			}
, 			{
				"patchline" : 				{
					"source" : [ "obj-11", 0 ],
					"destination" : [ "obj-16", 0 ],
					"hidden" : 0,
					"midpoints" : [  ]
				}

			}
, 			{
				"patchline" : 				{
					"source" : [ "obj-11", 1 ],
					"destination" : [ "obj-13", 0 ],
					"hidden" : 0,
					"midpoints" : [ 174.5, 173.5, 219.5, 173.5 ]
				}

			}
 ]
	}

}
