{
	"patcher" : 	{
		"fileversion" : 1,
		"rect" : [ 660.0, 44.0, 1014.0, 770.0 ],
		"bglocked" : 0,
		"defrect" : [ 660.0, 44.0, 1014.0, 770.0 ],
		"openrect" : [ 0.0, 0.0, 0.0, 0.0 ],
		"openinpresentation" : 0,
		"default_fontsize" : 10.0,
		"default_fontface" : 0,
		"default_fontname" : "Arial",
		"gridonopen" : 0,
		"gridsize" : [ 15.0, 15.0 ],
		"gridsnaponopen" : 0,
		"toolbarvisible" : 1,
		"boxanimatetime" : 200,
		"imprint" : 0,
		"enablehscroll" : 1,
		"enablevscroll" : 1,
		"devicewidth" : 0.0,
		"boxes" : [ 			{
				"box" : 				{
					"maxclass" : "newobj",
					"text" : "p delColor-Blue",
					"patching_rect" : [ 555.0, 60.0, 79.0, 18.0 ],
					"id" : "obj-72",
					"numinlets" : 1,
					"fontsize" : 10.0,
					"numoutlets" : 1,
					"outlettype" : [ "" ],
					"presentation_rect" : [ 528.0, 59.0, 0.0, 0.0 ],
					"fontname" : "Arial",
					"patcher" : 					{
						"fileversion" : 1,
						"rect" : [ 25.0, 69.0, 313.0, 430.0 ],
						"bglocked" : 0,
						"defrect" : [ 25.0, 69.0, 313.0, 430.0 ],
						"openrect" : [ 0.0, 0.0, 0.0, 0.0 ],
						"openinpresentation" : 0,
						"default_fontsize" : 10.0,
						"default_fontface" : 0,
						"default_fontname" : "Arial",
						"gridonopen" : 0,
						"gridsize" : [ 15.0, 15.0 ],
						"gridsnaponopen" : 0,
						"toolbarvisible" : 1,
						"boxanimatetime" : 200,
						"imprint" : 0,
						"enablehscroll" : 1,
						"enablevscroll" : 1,
						"devicewidth" : 0.0,
						"boxes" : [ 							{
								"box" : 								{
									"maxclass" : "comment",
									"text" : "send previous value, then store current",
									"patching_rect" : [ 75.0, 75.0, 181.0, 18.0 ],
									"id" : "obj-3",
									"numinlets" : 1,
									"fontsize" : 10.0,
									"numoutlets" : 0,
									"fontname" : "Arial"
								}

							}
, 							{
								"box" : 								{
									"maxclass" : "outlet",
									"patching_rect" : [ 45.0, 345.0, 25.0, 25.0 ],
									"id" : "obj-1",
									"numinlets" : 1,
									"numoutlets" : 0,
									"comment" : ""
								}

							}
, 							{
								"box" : 								{
									"maxclass" : "message",
									"text" : "160 160 160 160 160 160 160 160 162 162 162 162 163 163 163 163 160 160 160 160 160 160 160 160 158 161 162 162 160 159 161 163 169 159 164 176 178 178 180 177 175 176 173 173 178 170 162 165 158 158 157 157 157 157 157 157 158 158 158 158 158 158 158 158 160 160 160 160 160 160 160 160 162 162 162 162 162 162 162 162 165 165 165 165 165 165 165 165 167 167 167 167 167 167 167 167 171 169 169 166 164 172 174 162 162 172 179 179 177 177 177 177 181 180 184 184 173 173 175 170 186 165 133 131 176 200 195 187 180 180 184 156 85 38 73 61 46 37 42 56 54 52 51 48 43 43 43 44 44 44 45 45 46 46 47 48 49 49 50 50 45 44 43 43 43 43 44 45 46 45 44 43 42 43 44 45 43 43 42 44 45 45 43 41 44 48 51 50 53 52 45 34 36 46 53 51 42 39 41 44 99 131 178 172 168 167 163 187 222 247 249 217 168 138 106 87 74 80 69 71 110 190 190 169 179 176 174 174 177 178 177 176 177 177 177 177 177 177 177 177 176 179 180 178 180 182 175 162 171 178 183 182 180 181 182 181",
									"linecount" : 24,
									"patching_rect" : [ 45.0, 120.0, 218.0, 280.0 ],
									"id" : "obj-61",
									"numinlets" : 2,
									"fontsize" : 10.0,
									"numoutlets" : 1,
									"outlettype" : [ "" ],
									"fontname" : "Arial"
								}

							}
, 							{
								"box" : 								{
									"maxclass" : "newobj",
									"text" : "t l b",
									"patching_rect" : [ 30.0, 75.0, 33.5, 18.0 ],
									"id" : "obj-59",
									"numinlets" : 1,
									"fontsize" : 10.0,
									"numoutlets" : 2,
									"outlettype" : [ "", "bang" ],
									"fontname" : "Arial"
								}

							}
, 							{
								"box" : 								{
									"maxclass" : "inlet",
									"patching_rect" : [ 30.0, 30.0, 25.0, 25.0 ],
									"id" : "obj-63",
									"numinlets" : 0,
									"numoutlets" : 1,
									"outlettype" : [ "" ],
									"comment" : ""
								}

							}
 ],
						"lines" : [ 							{
								"patchline" : 								{
									"source" : [ "obj-63", 0 ],
									"destination" : [ "obj-59", 0 ],
									"hidden" : 0,
									"midpoints" : [  ]
								}

							}
, 							{
								"patchline" : 								{
									"source" : [ "obj-59", 0 ],
									"destination" : [ "obj-61", 1 ],
									"hidden" : 0,
									"midpoints" : [ 39.5, 106.0, 253.5, 106.0 ]
								}

							}
, 							{
								"patchline" : 								{
									"source" : [ "obj-59", 1 ],
									"destination" : [ "obj-61", 0 ],
									"hidden" : 0,
									"midpoints" : [  ]
								}

							}
, 							{
								"patchline" : 								{
									"source" : [ "obj-61", 0 ],
									"destination" : [ "obj-1", 0 ],
									"hidden" : 0,
									"midpoints" : [  ]
								}

							}
 ]
					}
,
					"saved_object_attributes" : 					{
						"default_fontsize" : 10.0,
						"fontface" : 0,
						"fontsize" : 10.0,
						"globalpatchername" : "",
						"default_fontface" : 0,
						"default_fontname" : "Arial",
						"fontname" : "Arial"
					}

				}

			}
, 			{
				"box" : 				{
					"maxclass" : "newobj",
					"text" : "jit.fill delColor 3",
					"patching_rect" : [ 555.0, 90.0, 78.0, 18.0 ],
					"id" : "obj-67",
					"numinlets" : 1,
					"fontsize" : 10.0,
					"numoutlets" : 2,
					"outlettype" : [ "", "" ],
					"fontname" : "Arial"
				}

			}
, 			{
				"box" : 				{
					"maxclass" : "newobj",
					"text" : "jit.fill delColor 2",
					"patching_rect" : [ 450.0, 90.0, 78.0, 18.0 ],
					"id" : "obj-68",
					"numinlets" : 1,
					"fontsize" : 10.0,
					"numoutlets" : 2,
					"outlettype" : [ "", "" ],
					"fontname" : "Arial"
				}

			}
, 			{
				"box" : 				{
					"maxclass" : "newobj",
					"text" : "jit.matrix delColor 4 char 16 16 16",
					"patching_rect" : [ 345.0, 120.0, 160.0, 18.0 ],
					"id" : "obj-69",
					"numinlets" : 1,
					"fontsize" : 10.0,
					"numoutlets" : 2,
					"outlettype" : [ "jit_matrix", "" ],
					"fontname" : "Arial"
				}

			}
, 			{
				"box" : 				{
					"maxclass" : "newobj",
					"text" : "jit.fill delColor 1",
					"patching_rect" : [ 345.0, 90.0, 78.0, 18.0 ],
					"id" : "obj-70",
					"numinlets" : 1,
					"fontsize" : 10.0,
					"numoutlets" : 2,
					"outlettype" : [ "", "" ],
					"fontname" : "Arial"
				}

			}
, 			{
				"box" : 				{
					"maxclass" : "jit.pwindow",
					"patching_rect" : [ 345.0, 150.0, 225.333328, 169.0 ],
					"id" : "obj-71",
					"numinlets" : 1,
					"numoutlets" : 2,
					"outlettype" : [ "", "" ],
					"presentation_rect" : [ 342.0, 152.0, 0.0, 0.0 ]
				}

			}
, 			{
				"box" : 				{
					"maxclass" : "newobj",
					"text" : "p delColor-Green",
					"patching_rect" : [ 450.0, 60.0, 87.0, 18.0 ],
					"id" : "obj-64",
					"numinlets" : 1,
					"fontsize" : 10.0,
					"numoutlets" : 1,
					"outlettype" : [ "" ],
					"fontname" : "Arial",
					"patcher" : 					{
						"fileversion" : 1,
						"rect" : [ 25.0, 69.0, 313.0, 430.0 ],
						"bglocked" : 0,
						"defrect" : [ 25.0, 69.0, 313.0, 430.0 ],
						"openrect" : [ 0.0, 0.0, 0.0, 0.0 ],
						"openinpresentation" : 0,
						"default_fontsize" : 10.0,
						"default_fontface" : 0,
						"default_fontname" : "Arial",
						"gridonopen" : 0,
						"gridsize" : [ 15.0, 15.0 ],
						"gridsnaponopen" : 0,
						"toolbarvisible" : 1,
						"boxanimatetime" : 200,
						"imprint" : 0,
						"enablehscroll" : 1,
						"enablevscroll" : 1,
						"devicewidth" : 0.0,
						"boxes" : [ 							{
								"box" : 								{
									"maxclass" : "comment",
									"text" : "send previous value, then store current",
									"patching_rect" : [ 75.0, 75.0, 181.0, 18.0 ],
									"id" : "obj-3",
									"numinlets" : 1,
									"fontsize" : 10.0,
									"numoutlets" : 0,
									"fontname" : "Arial"
								}

							}
, 							{
								"box" : 								{
									"maxclass" : "outlet",
									"patching_rect" : [ 45.0, 345.0, 25.0, 25.0 ],
									"id" : "obj-1",
									"numinlets" : 1,
									"numoutlets" : 0,
									"comment" : ""
								}

							}
, 							{
								"box" : 								{
									"maxclass" : "message",
									"text" : "163 163 163 163 163 163 163 163 165 165 165 166 166 166 166 167 166 166 166 166 166 166 166 166 165 167 169 168 166 166 167 169 171 161 166 178 179 179 181 178 176 178 174 175 179 172 163 167 168 168 167 166 166 166 166 167 168 168 168 168 168 168 168 168 164 164 164 164 164 164 164 164 166 166 166 166 166 166 166 166 169 169 169 169 169 169 169 169 171 171 171 171 171 171 171 171 176 174 174 171 169 177 179 167 167 177 184 184 182 182 182 182 176 175 181 182 174 173 177 173 187 165 129 127 166 190 182 174 171 171 172 144 71 24 56 45 28 19 24 38 38 36 35 32 33 33 34 34 35 35 36 36 36 37 36 37 36 37 36 37 35 34 33 32 33 34 35 36 37 36 35 34 34 35 36 37 33 33 33 34 35 35 33 31 32 36 39 37 39 38 30 19 23 33 37 36 25 22 25 28 87 119 167 162 156 155 149 172 190 215 220 188 143 113 84 64 53 59 52 54 99 179 184 163 184 182 179 180 181 183 182 180 181 181 181 181 181 181 181 181 181 185 185 182 184 186 177 165 173 180 184 182 180 181 181 180",
									"linecount" : 24,
									"patching_rect" : [ 45.0, 120.0, 218.0, 280.0 ],
									"id" : "obj-61",
									"numinlets" : 2,
									"fontsize" : 10.0,
									"numoutlets" : 1,
									"outlettype" : [ "" ],
									"fontname" : "Arial"
								}

							}
, 							{
								"box" : 								{
									"maxclass" : "newobj",
									"text" : "t l b",
									"patching_rect" : [ 30.0, 75.0, 33.5, 18.0 ],
									"id" : "obj-59",
									"numinlets" : 1,
									"fontsize" : 10.0,
									"numoutlets" : 2,
									"outlettype" : [ "", "bang" ],
									"fontname" : "Arial"
								}

							}
, 							{
								"box" : 								{
									"maxclass" : "inlet",
									"patching_rect" : [ 30.0, 30.0, 25.0, 25.0 ],
									"id" : "obj-63",
									"numinlets" : 0,
									"numoutlets" : 1,
									"outlettype" : [ "" ],
									"comment" : ""
								}

							}
 ],
						"lines" : [ 							{
								"patchline" : 								{
									"source" : [ "obj-61", 0 ],
									"destination" : [ "obj-1", 0 ],
									"hidden" : 0,
									"midpoints" : [  ]
								}

							}
, 							{
								"patchline" : 								{
									"source" : [ "obj-59", 1 ],
									"destination" : [ "obj-61", 0 ],
									"hidden" : 0,
									"midpoints" : [  ]
								}

							}
, 							{
								"patchline" : 								{
									"source" : [ "obj-59", 0 ],
									"destination" : [ "obj-61", 1 ],
									"hidden" : 0,
									"midpoints" : [ 39.5, 106.0, 253.5, 106.0 ]
								}

							}
, 							{
								"patchline" : 								{
									"source" : [ "obj-63", 0 ],
									"destination" : [ "obj-59", 0 ],
									"hidden" : 0,
									"midpoints" : [  ]
								}

							}
 ]
					}
,
					"saved_object_attributes" : 					{
						"default_fontsize" : 10.0,
						"fontface" : 0,
						"fontsize" : 10.0,
						"globalpatchername" : "",
						"default_fontface" : 0,
						"default_fontname" : "Arial",
						"fontname" : "Arial"
					}

				}

			}
, 			{
				"box" : 				{
					"maxclass" : "comment",
					"text" : "... and send to other color inputs",
					"linecount" : 2,
					"patching_rect" : [ 705.0, 405.0, 90.0, 29.0 ],
					"id" : "obj-55",
					"numinlets" : 1,
					"fontsize" : 10.0,
					"numoutlets" : 0,
					"presentation_rect" : [ 704.0, 404.0, 0.0, 0.0 ],
					"fontname" : "Arial"
				}

			}
, 			{
				"box" : 				{
					"maxclass" : "comment",
					"text" : "unpack colors...",
					"patching_rect" : [ 705.0, 375.0, 86.0, 18.0 ],
					"id" : "obj-54",
					"numinlets" : 1,
					"fontsize" : 10.0,
					"numoutlets" : 0,
					"fontname" : "Arial"
				}

			}
, 			{
				"box" : 				{
					"maxclass" : "comment",
					"text" : "shift colors",
					"patching_rect" : [ 615.0, 645.0, 59.0, 18.0 ],
					"id" : "obj-52",
					"numinlets" : 1,
					"fontsize" : 10.0,
					"numoutlets" : 0,
					"presentation_rect" : [ 618.0, 643.0, 0.0, 0.0 ],
					"fontname" : "Arial"
				}

			}
, 			{
				"box" : 				{
					"maxclass" : "jit.pwindow",
					"patching_rect" : [ 615.0, 465.0, 225.333328, 169.0 ],
					"id" : "obj-51",
					"numinlets" : 1,
					"numoutlets" : 2,
					"outlettype" : [ "", "" ],
					"presentation_rect" : [ 617.0, 461.0, 0.0, 0.0 ]
				}

			}
, 			{
				"box" : 				{
					"maxclass" : "newobj",
					"text" : "jit.pack",
					"patching_rect" : [ 615.0, 405.0, 77.5, 18.0 ],
					"id" : "obj-50",
					"numinlets" : 4,
					"fontsize" : 10.0,
					"numoutlets" : 2,
					"outlettype" : [ "jit_matrix", "" ],
					"fontname" : "Arial"
				}

			}
, 			{
				"box" : 				{
					"maxclass" : "newobj",
					"text" : "jit.unpack",
					"patching_rect" : [ 615.0, 375.0, 77.0, 18.0 ],
					"id" : "obj-49",
					"numinlets" : 1,
					"fontsize" : 10.0,
					"numoutlets" : 5,
					"outlettype" : [ "jit_matrix", "jit_matrix", "jit_matrix", "jit_matrix", "" ],
					"fontname" : "Arial"
				}

			}
, 			{
				"box" : 				{
					"maxclass" : "comment",
					"text" : "all pixels randomly shuffled around",
					"patching_rect" : [ 345.0, 645.0, 165.0, 18.0 ],
					"id" : "obj-47",
					"numinlets" : 1,
					"fontsize" : 10.0,
					"numoutlets" : 0,
					"presentation_rect" : [ 337.0, 647.0, 0.0, 0.0 ],
					"fontname" : "Arial"
				}

			}
, 			{
				"box" : 				{
					"maxclass" : "newobj",
					"text" : "jit.fill random 3",
					"patching_rect" : [ 525.0, 405.0, 75.0, 18.0 ],
					"id" : "obj-43",
					"numinlets" : 1,
					"fontsize" : 10.0,
					"numoutlets" : 2,
					"outlettype" : [ "", "" ],
					"fontname" : "Arial"
				}

			}
, 			{
				"box" : 				{
					"maxclass" : "newobj",
					"text" : "jit.fill random 2",
					"patching_rect" : [ 435.0, 405.0, 75.0, 18.0 ],
					"id" : "obj-44",
					"numinlets" : 1,
					"fontsize" : 10.0,
					"numoutlets" : 2,
					"outlettype" : [ "", "" ],
					"fontname" : "Arial"
				}

			}
, 			{
				"box" : 				{
					"maxclass" : "newobj",
					"text" : "jit.matrix random 4 char 16 16 16",
					"patching_rect" : [ 345.0, 435.0, 157.0, 18.0 ],
					"id" : "obj-45",
					"numinlets" : 1,
					"fontsize" : 10.0,
					"numoutlets" : 2,
					"outlettype" : [ "jit_matrix", "" ],
					"fontname" : "Arial"
				}

			}
, 			{
				"box" : 				{
					"maxclass" : "newobj",
					"text" : "jit.fill random 1",
					"patching_rect" : [ 345.0, 405.0, 75.0, 18.0 ],
					"id" : "obj-46",
					"numinlets" : 1,
					"fontsize" : 10.0,
					"numoutlets" : 2,
					"outlettype" : [ "", "" ],
					"fontname" : "Arial"
				}

			}
, 			{
				"box" : 				{
					"maxclass" : "newobj",
					"text" : "zl rev",
					"patching_rect" : [ 525.0, 375.0, 34.0, 18.0 ],
					"id" : "obj-42",
					"numinlets" : 2,
					"fontsize" : 10.0,
					"numoutlets" : 2,
					"outlettype" : [ "", "" ],
					"fontname" : "Arial"
				}

			}
, 			{
				"box" : 				{
					"maxclass" : "newobj",
					"text" : "zl rev",
					"patching_rect" : [ 435.0, 375.0, 34.0, 18.0 ],
					"id" : "obj-41",
					"numinlets" : 2,
					"fontsize" : 10.0,
					"numoutlets" : 2,
					"outlettype" : [ "", "" ],
					"fontname" : "Arial"
				}

			}
, 			{
				"box" : 				{
					"maxclass" : "newobj",
					"text" : "zl rev",
					"patching_rect" : [ 345.0, 375.0, 34.0, 18.0 ],
					"id" : "obj-40",
					"numinlets" : 2,
					"fontsize" : 10.0,
					"numoutlets" : 2,
					"outlettype" : [ "", "" ],
					"fontname" : "Arial"
				}

			}
, 			{
				"box" : 				{
					"maxclass" : "jit.pwindow",
					"patching_rect" : [ 345.0, 465.0, 225.333328, 169.0 ],
					"id" : "obj-37",
					"numinlets" : 1,
					"numoutlets" : 2,
					"outlettype" : [ "", "" ],
					"presentation_rect" : [ 360.0, 469.0, 0.0, 0.0 ]
				}

			}
, 			{
				"box" : 				{
					"maxclass" : "jit.fpsgui",
					"patching_rect" : [ 30.0, 690.0, 80.0, 33.0 ],
					"id" : "obj-36",
					"numinlets" : 1,
					"fontsize" : 10.0,
					"numoutlets" : 2,
					"outlettype" : [ "", "" ],
					"fontname" : "Arial"
				}

			}
, 			{
				"box" : 				{
					"maxclass" : "comment",
					"text" : "all pixels sorted numerically",
					"patching_rect" : [ 75.0, 645.0, 132.0, 18.0 ],
					"id" : "obj-35",
					"numinlets" : 1,
					"fontsize" : 10.0,
					"numoutlets" : 0,
					"fontname" : "Arial"
				}

			}
, 			{
				"box" : 				{
					"maxclass" : "newobj",
					"text" : "jit.fill sorted 3",
					"patching_rect" : [ 210.0, 405.0, 69.0, 18.0 ],
					"id" : "obj-33",
					"numinlets" : 1,
					"fontsize" : 10.0,
					"numoutlets" : 2,
					"outlettype" : [ "", "" ],
					"fontname" : "Arial"
				}

			}
, 			{
				"box" : 				{
					"maxclass" : "newobj",
					"text" : "jit.fill sorted 2",
					"patching_rect" : [ 120.0, 405.0, 69.0, 18.0 ],
					"id" : "obj-32",
					"numinlets" : 1,
					"fontsize" : 10.0,
					"numoutlets" : 2,
					"outlettype" : [ "", "" ],
					"fontname" : "Arial"
				}

			}
, 			{
				"box" : 				{
					"maxclass" : "jit.pwindow",
					"patching_rect" : [ 75.0, 465.0, 225.333328, 169.0 ],
					"id" : "obj-31",
					"numinlets" : 1,
					"numoutlets" : 2,
					"outlettype" : [ "", "" ],
					"presentation_rect" : [ 25.0, 467.0, 0.0, 0.0 ]
				}

			}
, 			{
				"box" : 				{
					"maxclass" : "newobj",
					"text" : "jit.matrix sorted 4 char 16 16 16",
					"patching_rect" : [ 30.0, 435.0, 151.0, 18.0 ],
					"id" : "obj-30",
					"numinlets" : 1,
					"fontsize" : 10.0,
					"numoutlets" : 2,
					"outlettype" : [ "jit_matrix", "" ],
					"fontname" : "Arial"
				}

			}
, 			{
				"box" : 				{
					"maxclass" : "newobj",
					"text" : "jit.fill sorted 1",
					"patching_rect" : [ 30.0, 405.0, 69.0, 18.0 ],
					"id" : "obj-27",
					"numinlets" : 1,
					"fontsize" : 10.0,
					"numoutlets" : 2,
					"outlettype" : [ "", "" ],
					"fontname" : "Arial"
				}

			}
, 			{
				"box" : 				{
					"maxclass" : "newobj",
					"text" : "zl sort",
					"patching_rect" : [ 210.0, 375.0, 37.0, 18.0 ],
					"id" : "obj-26",
					"numinlets" : 2,
					"fontsize" : 10.0,
					"numoutlets" : 2,
					"outlettype" : [ "", "" ],
					"presentation_rect" : [ 243.0, 372.0, 0.0, 0.0 ],
					"fontname" : "Arial"
				}

			}
, 			{
				"box" : 				{
					"maxclass" : "newobj",
					"text" : "zl sort",
					"patching_rect" : [ 120.0, 375.0, 37.0, 18.0 ],
					"id" : "obj-25",
					"numinlets" : 2,
					"fontsize" : 10.0,
					"numoutlets" : 2,
					"outlettype" : [ "", "" ],
					"presentation_rect" : [ 137.0, 372.0, 0.0, 0.0 ],
					"fontname" : "Arial"
				}

			}
, 			{
				"box" : 				{
					"maxclass" : "newobj",
					"text" : "zl sort",
					"patching_rect" : [ 30.0, 375.0, 37.0, 18.0 ],
					"id" : "obj-24",
					"numinlets" : 2,
					"fontsize" : 10.0,
					"numoutlets" : 2,
					"outlettype" : [ "", "" ],
					"fontname" : "Arial"
				}

			}
, 			{
				"box" : 				{
					"maxclass" : "newobj",
					"text" : "jit.spill @plane 3",
					"patching_rect" : [ 210.0, 345.0, 83.0, 18.0 ],
					"id" : "obj-23",
					"numinlets" : 1,
					"fontsize" : 10.0,
					"numoutlets" : 2,
					"outlettype" : [ "", "" ],
					"fontname" : "Arial"
				}

			}
, 			{
				"box" : 				{
					"maxclass" : "newobj",
					"text" : "jit.spill @plane 2",
					"patching_rect" : [ 120.0, 345.0, 83.0, 18.0 ],
					"id" : "obj-22",
					"numinlets" : 1,
					"fontsize" : 10.0,
					"numoutlets" : 2,
					"outlettype" : [ "", "" ],
					"fontname" : "Arial"
				}

			}
, 			{
				"box" : 				{
					"maxclass" : "newobj",
					"text" : "jit.spill @plane 1",
					"patching_rect" : [ 30.0, 345.0, 83.0, 18.0 ],
					"id" : "obj-21",
					"numinlets" : 1,
					"fontsize" : 10.0,
					"numoutlets" : 2,
					"outlettype" : [ "", "" ],
					"fontname" : "Arial"
				}

			}
, 			{
				"box" : 				{
					"maxclass" : "jit.pwindow",
					"patching_rect" : [ 75.0, 150.0, 225.333328, 169.0 ],
					"id" : "obj-15",
					"numinlets" : 1,
					"numoutlets" : 2,
					"outlettype" : [ "", "" ]
				}

			}
, 			{
				"box" : 				{
					"maxclass" : "newobj",
					"text" : "jit.matrix 4 char 16 16 16 @dim 320 240",
					"patching_rect" : [ 30.0, 120.0, 188.0, 18.0 ],
					"id" : "obj-13",
					"numinlets" : 1,
					"fontsize" : 10.0,
					"numoutlets" : 2,
					"outlettype" : [ "jit_matrix", "" ],
					"fontname" : "Arial"
				}

			}
, 			{
				"box" : 				{
					"maxclass" : "newobj",
					"text" : "if $i1==1 then start else stop",
					"patching_rect" : [ 105.0, 60.0, 136.0, 18.0 ],
					"id" : "obj-7",
					"numinlets" : 1,
					"fontsize" : 10.0,
					"numoutlets" : 1,
					"outlettype" : [ "" ],
					"fontname" : "Arial"
				}

			}
, 			{
				"box" : 				{
					"maxclass" : "message",
					"text" : "read",
					"patching_rect" : [ 90.0, 30.0, 32.5, 16.0 ],
					"id" : "obj-6",
					"numinlets" : 2,
					"fontsize" : 10.0,
					"numoutlets" : 1,
					"outlettype" : [ "" ],
					"fontname" : "Arial"
				}

			}
, 			{
				"box" : 				{
					"maxclass" : "newobj",
					"text" : "qmetro 33",
					"patching_rect" : [ 30.0, 60.0, 56.0, 18.0 ],
					"id" : "obj-4",
					"numinlets" : 2,
					"fontsize" : 10.0,
					"numoutlets" : 1,
					"outlettype" : [ "bang" ],
					"fontname" : "Arial"
				}

			}
, 			{
				"box" : 				{
					"maxclass" : "newobj",
					"text" : "jit.qt.movie 320 240 @vol 0.",
					"patching_rect" : [ 30.0, 90.0, 134.0, 18.0 ],
					"id" : "obj-3",
					"numinlets" : 1,
					"fontsize" : 10.0,
					"numoutlets" : 2,
					"outlettype" : [ "jit_matrix", "" ],
					"fontname" : "Arial"
				}

			}
, 			{
				"box" : 				{
					"maxclass" : "toggle",
					"patching_rect" : [ 30.0, 30.0, 20.0, 20.0 ],
					"id" : "obj-2",
					"numinlets" : 1,
					"numoutlets" : 1,
					"outlettype" : [ "int" ]
				}

			}
 ],
		"lines" : [ 			{
				"patchline" : 				{
					"source" : [ "obj-21", 0 ],
					"destination" : [ "obj-70", 0 ],
					"hidden" : 1,
					"midpoints" : [  ]
				}

			}
, 			{
				"patchline" : 				{
					"source" : [ "obj-23", 0 ],
					"destination" : [ "obj-72", 0 ],
					"hidden" : 1,
					"midpoints" : [  ]
				}

			}
, 			{
				"patchline" : 				{
					"source" : [ "obj-72", 0 ],
					"destination" : [ "obj-67", 0 ],
					"hidden" : 0,
					"midpoints" : [  ]
				}

			}
, 			{
				"patchline" : 				{
					"source" : [ "obj-22", 0 ],
					"destination" : [ "obj-64", 0 ],
					"hidden" : 1,
					"midpoints" : [  ]
				}

			}
, 			{
				"patchline" : 				{
					"source" : [ "obj-64", 0 ],
					"destination" : [ "obj-68", 0 ],
					"hidden" : 0,
					"midpoints" : [  ]
				}

			}
, 			{
				"patchline" : 				{
					"source" : [ "obj-69", 0 ],
					"destination" : [ "obj-71", 0 ],
					"hidden" : 0,
					"midpoints" : [  ]
				}

			}
, 			{
				"patchline" : 				{
					"source" : [ "obj-70", 0 ],
					"destination" : [ "obj-69", 0 ],
					"hidden" : 0,
					"midpoints" : [  ]
				}

			}
, 			{
				"patchline" : 				{
					"source" : [ "obj-68", 0 ],
					"destination" : [ "obj-69", 0 ],
					"hidden" : 0,
					"midpoints" : [ 459.5, 113.5, 354.5, 113.5 ]
				}

			}
, 			{
				"patchline" : 				{
					"source" : [ "obj-67", 0 ],
					"destination" : [ "obj-69", 0 ],
					"hidden" : 0,
					"midpoints" : [ 564.5, 113.5, 354.5, 113.5 ]
				}

			}
, 			{
				"patchline" : 				{
					"source" : [ "obj-30", 0 ],
					"destination" : [ "obj-36", 0 ],
					"hidden" : 0,
					"midpoints" : [  ]
				}

			}
, 			{
				"patchline" : 				{
					"source" : [ "obj-27", 0 ],
					"destination" : [ "obj-30", 0 ],
					"hidden" : 0,
					"midpoints" : [  ]
				}

			}
, 			{
				"patchline" : 				{
					"source" : [ "obj-30", 0 ],
					"destination" : [ "obj-31", 0 ],
					"hidden" : 0,
					"midpoints" : [ 39.5, 458.5, 84.5, 458.5 ]
				}

			}
, 			{
				"patchline" : 				{
					"source" : [ "obj-32", 0 ],
					"destination" : [ "obj-30", 0 ],
					"hidden" : 0,
					"midpoints" : [ 129.5, 428.5, 39.5, 428.5 ]
				}

			}
, 			{
				"patchline" : 				{
					"source" : [ "obj-33", 0 ],
					"destination" : [ "obj-30", 0 ],
					"hidden" : 0,
					"midpoints" : [ 219.5, 428.5, 39.5, 428.5 ]
				}

			}
, 			{
				"patchline" : 				{
					"source" : [ "obj-23", 0 ],
					"destination" : [ "obj-42", 0 ],
					"hidden" : 0,
					"midpoints" : [ 219.5, 368.5, 534.5, 368.5 ]
				}

			}
, 			{
				"patchline" : 				{
					"source" : [ "obj-42", 0 ],
					"destination" : [ "obj-43", 0 ],
					"hidden" : 0,
					"midpoints" : [  ]
				}

			}
, 			{
				"patchline" : 				{
					"source" : [ "obj-41", 0 ],
					"destination" : [ "obj-44", 0 ],
					"hidden" : 0,
					"midpoints" : [  ]
				}

			}
, 			{
				"patchline" : 				{
					"source" : [ "obj-22", 0 ],
					"destination" : [ "obj-41", 0 ],
					"hidden" : 0,
					"midpoints" : [ 129.5, 368.5, 444.5, 368.5 ]
				}

			}
, 			{
				"patchline" : 				{
					"source" : [ "obj-21", 0 ],
					"destination" : [ "obj-40", 0 ],
					"hidden" : 0,
					"midpoints" : [ 39.5, 368.5, 354.5, 368.5 ]
				}

			}
, 			{
				"patchline" : 				{
					"source" : [ "obj-40", 0 ],
					"destination" : [ "obj-46", 0 ],
					"hidden" : 0,
					"midpoints" : [  ]
				}

			}
, 			{
				"patchline" : 				{
					"source" : [ "obj-49", 2 ],
					"destination" : [ "obj-50", 2 ],
					"hidden" : 0,
					"midpoints" : [  ]
				}

			}
, 			{
				"patchline" : 				{
					"source" : [ "obj-49", 1 ],
					"destination" : [ "obj-50", 3 ],
					"hidden" : 0,
					"midpoints" : [  ]
				}

			}
, 			{
				"patchline" : 				{
					"source" : [ "obj-50", 0 ],
					"destination" : [ "obj-51", 0 ],
					"hidden" : 0,
					"midpoints" : [  ]
				}

			}
, 			{
				"patchline" : 				{
					"source" : [ "obj-13", 0 ],
					"destination" : [ "obj-49", 0 ],
					"hidden" : 0,
					"midpoints" : [ 39.5, 331.0, 624.5, 331.0 ]
				}

			}
, 			{
				"patchline" : 				{
					"source" : [ "obj-49", 3 ],
					"destination" : [ "obj-50", 1 ],
					"hidden" : 0,
					"midpoints" : [  ]
				}

			}
, 			{
				"patchline" : 				{
					"source" : [ "obj-49", 0 ],
					"destination" : [ "obj-50", 0 ],
					"hidden" : 0,
					"midpoints" : [  ]
				}

			}
, 			{
				"patchline" : 				{
					"source" : [ "obj-45", 0 ],
					"destination" : [ "obj-37", 0 ],
					"hidden" : 0,
					"midpoints" : [  ]
				}

			}
, 			{
				"patchline" : 				{
					"source" : [ "obj-46", 0 ],
					"destination" : [ "obj-45", 0 ],
					"hidden" : 0,
					"midpoints" : [  ]
				}

			}
, 			{
				"patchline" : 				{
					"source" : [ "obj-44", 0 ],
					"destination" : [ "obj-45", 0 ],
					"hidden" : 0,
					"midpoints" : [ 444.5, 428.5, 354.5, 428.5 ]
				}

			}
, 			{
				"patchline" : 				{
					"source" : [ "obj-43", 0 ],
					"destination" : [ "obj-45", 0 ],
					"hidden" : 0,
					"midpoints" : [ 534.5, 428.5, 354.5, 428.5 ]
				}

			}
, 			{
				"patchline" : 				{
					"source" : [ "obj-3", 0 ],
					"destination" : [ "obj-13", 0 ],
					"hidden" : 0,
					"midpoints" : [  ]
				}

			}
, 			{
				"patchline" : 				{
					"source" : [ "obj-13", 0 ],
					"destination" : [ "obj-15", 0 ],
					"hidden" : 0,
					"midpoints" : [ 39.5, 143.5, 84.5, 143.5 ]
				}

			}
, 			{
				"patchline" : 				{
					"source" : [ "obj-13", 0 ],
					"destination" : [ "obj-21", 0 ],
					"hidden" : 0,
					"midpoints" : [  ]
				}

			}
, 			{
				"patchline" : 				{
					"source" : [ "obj-13", 0 ],
					"destination" : [ "obj-22", 0 ],
					"hidden" : 0,
					"midpoints" : [ 39.5, 331.0, 129.5, 331.0 ]
				}

			}
, 			{
				"patchline" : 				{
					"source" : [ "obj-13", 0 ],
					"destination" : [ "obj-23", 0 ],
					"hidden" : 0,
					"midpoints" : [ 39.5, 331.0, 219.5, 331.0 ]
				}

			}
, 			{
				"patchline" : 				{
					"source" : [ "obj-26", 0 ],
					"destination" : [ "obj-33", 0 ],
					"hidden" : 0,
					"midpoints" : [  ]
				}

			}
, 			{
				"patchline" : 				{
					"source" : [ "obj-25", 0 ],
					"destination" : [ "obj-32", 0 ],
					"hidden" : 0,
					"midpoints" : [  ]
				}

			}
, 			{
				"patchline" : 				{
					"source" : [ "obj-24", 0 ],
					"destination" : [ "obj-27", 0 ],
					"hidden" : 0,
					"midpoints" : [  ]
				}

			}
, 			{
				"patchline" : 				{
					"source" : [ "obj-23", 0 ],
					"destination" : [ "obj-26", 0 ],
					"hidden" : 0,
					"midpoints" : [  ]
				}

			}
, 			{
				"patchline" : 				{
					"source" : [ "obj-22", 0 ],
					"destination" : [ "obj-25", 0 ],
					"hidden" : 0,
					"midpoints" : [  ]
				}

			}
, 			{
				"patchline" : 				{
					"source" : [ "obj-21", 0 ],
					"destination" : [ "obj-24", 0 ],
					"hidden" : 0,
					"midpoints" : [  ]
				}

			}
, 			{
				"patchline" : 				{
					"source" : [ "obj-7", 0 ],
					"destination" : [ "obj-3", 0 ],
					"hidden" : 0,
					"midpoints" : [ 114.5, 84.5, 39.5, 84.5 ]
				}

			}
, 			{
				"patchline" : 				{
					"source" : [ "obj-2", 0 ],
					"destination" : [ "obj-7", 0 ],
					"hidden" : 0,
					"midpoints" : [ 39.5, 54.5, 114.5, 54.5 ]
				}

			}
, 			{
				"patchline" : 				{
					"source" : [ "obj-6", 0 ],
					"destination" : [ "obj-3", 0 ],
					"hidden" : 0,
					"midpoints" : [ 99.5, 84.5, 39.5, 84.5 ]
				}

			}
, 			{
				"patchline" : 				{
					"source" : [ "obj-4", 0 ],
					"destination" : [ "obj-3", 0 ],
					"hidden" : 0,
					"midpoints" : [  ]
				}

			}
, 			{
				"patchline" : 				{
					"source" : [ "obj-2", 0 ],
					"destination" : [ "obj-4", 0 ],
					"hidden" : 0,
					"midpoints" : [  ]
				}

			}
 ]
	}

}
