{
	"patcher" : 	{
		"fileversion" : 1,
		"rect" : [ 840.0, 44.0, 476.0, 563.0 ],
		"bglocked" : 0,
		"defrect" : [ 840.0, 44.0, 476.0, 563.0 ],
		"openrect" : [ 0.0, 0.0, 0.0, 0.0 ],
		"openinpresentation" : 0,
		"default_fontsize" : 10.0,
		"default_fontface" : 0,
		"default_fontname" : "Arial",
		"gridonopen" : 0,
		"gridsize" : [ 15.0, 15.0 ],
		"gridsnaponopen" : 0,
		"toolbarvisible" : 1,
		"boxanimatetime" : 200,
		"imprint" : 0,
		"enablehscroll" : 1,
		"enablevscroll" : 1,
		"devicewidth" : 0.0,
		"boxes" : [ 			{
				"box" : 				{
					"maxclass" : "newobj",
					"text" : "jit.lumakey",
					"outlettype" : [ "jit_matrix", "" ],
					"patching_rect" : [ 345.0, 480.0, 58.0, 18.0 ],
					"id" : "obj-27",
					"fontsize" : 10.0,
					"numinlets" : 2,
					"numoutlets" : 2,
					"fontname" : "Arial"
				}

			}
, 			{
				"box" : 				{
					"maxclass" : "newobj",
					"text" : "jit.chromakey",
					"outlettype" : [ "jit_matrix", "" ],
					"patching_rect" : [ 345.0, 450.0, 69.0, 18.0 ],
					"id" : "obj-26",
					"fontsize" : 10.0,
					"numinlets" : 2,
					"numoutlets" : 2,
					"fontname" : "Arial"
				}

			}
, 			{
				"box" : 				{
					"maxclass" : "comment",
					"text" : "For fancier alpha stuff, try these:",
					"linecount" : 2,
					"patching_rect" : [ 345.0, 405.0, 86.0, 29.0 ],
					"id" : "obj-25",
					"fontsize" : 10.0,
					"numinlets" : 1,
					"numoutlets" : 0,
					"fontname" : "Arial"
				}

			}
, 			{
				"box" : 				{
					"maxclass" : "comment",
					"text" : "PNG FILE as MASK",
					"patching_rect" : [ 30.0, 30.0, 111.0, 18.0 ],
					"id" : "obj-23",
					"fontsize" : 10.0,
					"numinlets" : 1,
					"numoutlets" : 0,
					"fontname" : "Arial"
				}

			}
, 			{
				"box" : 				{
					"maxclass" : "comment",
					"text" : "NOTE: for the mask file, you MUST use \"alphamask.png\" from the Jitter example patches; it has been created with a transparent center (not the white \"fuzz-circle\" image from the Max5 folder)",
					"linecount" : 4,
					"patching_rect" : [ 120.0, 60.0, 233.0, 52.0 ],
					"id" : "obj-18",
					"fontsize" : 10.0,
					"numinlets" : 1,
					"numoutlets" : 0,
					"fontname" : "Arial"
				}

			}
, 			{
				"box" : 				{
					"maxclass" : "comment",
					"text" : "< video file",
					"patching_rect" : [ 255.0, 150.0, 60.0, 18.0 ],
					"id" : "obj-16",
					"fontsize" : 10.0,
					"numinlets" : 1,
					"numoutlets" : 0,
					"fontname" : "Arial"
				}

			}
, 			{
				"box" : 				{
					"maxclass" : "comment",
					"text" : "< read mask file",
					"patching_rect" : [ 90.0, 150.0, 84.0, 18.0 ],
					"id" : "obj-14",
					"fontsize" : 10.0,
					"numinlets" : 1,
					"numoutlets" : 0,
					"fontname" : "Arial"
				}

			}
, 			{
				"box" : 				{
					"maxclass" : "jit.fpsgui",
					"outlettype" : [ "", "" ],
					"patching_rect" : [ 30.0, 510.0, 80.0, 33.0 ],
					"id" : "obj-12",
					"fontsize" : 10.0,
					"numinlets" : 1,
					"numoutlets" : 2,
					"fontname" : "Arial"
				}

			}
, 			{
				"box" : 				{
					"maxclass" : "jit.pwindow",
					"outlettype" : [ "", "" ],
					"patching_rect" : [ 30.0, 270.0, 301.0, 225.75 ],
					"id" : "obj-11",
					"numinlets" : 1,
					"numoutlets" : 2
				}

			}
, 			{
				"box" : 				{
					"maxclass" : "newobj",
					"text" : "jit.alphablend",
					"outlettype" : [ "jit_matrix", "" ],
					"patching_rect" : [ 30.0, 225.0, 184.0, 18.0 ],
					"id" : "obj-10",
					"fontsize" : 10.0,
					"numinlets" : 2,
					"numoutlets" : 2,
					"fontname" : "Arial"
				}

			}
, 			{
				"box" : 				{
					"maxclass" : "newobj",
					"text" : "t b b",
					"outlettype" : [ "bang", "bang" ],
					"patching_rect" : [ 30.0, 120.0, 32.5, 18.0 ],
					"id" : "obj-9",
					"fontsize" : 10.0,
					"numinlets" : 1,
					"numoutlets" : 2,
					"fontname" : "Arial"
				}

			}
, 			{
				"box" : 				{
					"maxclass" : "message",
					"text" : "read",
					"outlettype" : [ "" ],
					"patching_rect" : [ 210.0, 150.0, 32.5, 16.0 ],
					"id" : "obj-7",
					"fontsize" : 10.0,
					"numinlets" : 2,
					"numoutlets" : 1,
					"fontname" : "Arial"
				}

			}
, 			{
				"box" : 				{
					"maxclass" : "newobj",
					"text" : "jit.qt.movie 320 240 @vol 0.",
					"outlettype" : [ "jit_matrix", "" ],
					"patching_rect" : [ 195.0, 180.0, 134.0, 18.0 ],
					"id" : "obj-8",
					"fontsize" : 10.0,
					"numinlets" : 1,
					"numoutlets" : 2,
					"fontname" : "Arial"
				}

			}
, 			{
				"box" : 				{
					"maxclass" : "message",
					"text" : "read",
					"outlettype" : [ "" ],
					"patching_rect" : [ 45.0, 150.0, 32.5, 16.0 ],
					"id" : "obj-6",
					"fontsize" : 10.0,
					"numinlets" : 2,
					"numoutlets" : 1,
					"fontname" : "Arial"
				}

			}
, 			{
				"box" : 				{
					"maxclass" : "newobj",
					"text" : "jit.qt.movie 320 240",
					"outlettype" : [ "jit_matrix", "" ],
					"patching_rect" : [ 30.0, 180.0, 97.0, 18.0 ],
					"id" : "obj-4",
					"fontsize" : 10.0,
					"numinlets" : 1,
					"numoutlets" : 2,
					"fontname" : "Arial"
				}

			}
, 			{
				"box" : 				{
					"maxclass" : "newobj",
					"text" : "qmetro 33",
					"outlettype" : [ "bang" ],
					"patching_rect" : [ 30.0, 90.0, 56.0, 18.0 ],
					"id" : "obj-3",
					"fontsize" : 10.0,
					"numinlets" : 2,
					"numoutlets" : 1,
					"fontname" : "Arial"
				}

			}
, 			{
				"box" : 				{
					"maxclass" : "toggle",
					"outlettype" : [ "int" ],
					"patching_rect" : [ 30.0, 60.0, 20.0, 20.0 ],
					"id" : "obj-2",
					"numinlets" : 1,
					"numoutlets" : 1
				}

			}
 ],
		"lines" : [ 			{
				"patchline" : 				{
					"source" : [ "obj-11", 0 ],
					"destination" : [ "obj-12", 0 ],
					"hidden" : 0,
					"midpoints" : [  ]
				}

			}
, 			{
				"patchline" : 				{
					"source" : [ "obj-10", 0 ],
					"destination" : [ "obj-11", 0 ],
					"hidden" : 0,
					"midpoints" : [  ]
				}

			}
, 			{
				"patchline" : 				{
					"source" : [ "obj-8", 0 ],
					"destination" : [ "obj-10", 1 ],
					"hidden" : 0,
					"midpoints" : [  ]
				}

			}
, 			{
				"patchline" : 				{
					"source" : [ "obj-4", 0 ],
					"destination" : [ "obj-10", 0 ],
					"hidden" : 0,
					"midpoints" : [  ]
				}

			}
, 			{
				"patchline" : 				{
					"source" : [ "obj-9", 1 ],
					"destination" : [ "obj-8", 0 ],
					"hidden" : 0,
					"midpoints" : [ 53.0, 143.5, 204.5, 143.5 ]
				}

			}
, 			{
				"patchline" : 				{
					"source" : [ "obj-9", 0 ],
					"destination" : [ "obj-4", 0 ],
					"hidden" : 0,
					"midpoints" : [  ]
				}

			}
, 			{
				"patchline" : 				{
					"source" : [ "obj-3", 0 ],
					"destination" : [ "obj-9", 0 ],
					"hidden" : 0,
					"midpoints" : [  ]
				}

			}
, 			{
				"patchline" : 				{
					"source" : [ "obj-7", 0 ],
					"destination" : [ "obj-8", 0 ],
					"hidden" : 0,
					"midpoints" : [ 219.5, 172.5, 204.5, 172.5 ]
				}

			}
, 			{
				"patchline" : 				{
					"source" : [ "obj-6", 0 ],
					"destination" : [ "obj-4", 0 ],
					"hidden" : 0,
					"midpoints" : [ 54.5, 172.5, 39.5, 172.5 ]
				}

			}
, 			{
				"patchline" : 				{
					"source" : [ "obj-2", 0 ],
					"destination" : [ "obj-3", 0 ],
					"hidden" : 0,
					"midpoints" : [  ]
				}

			}
 ]
	}

}
