{
	"patcher" : 	{
		"fileversion" : 1,
		"rect" : [ 796.0, 44.0, 580.0, 826.0 ],
		"bglocked" : 0,
		"defrect" : [ 796.0, 44.0, 580.0, 826.0 ],
		"openrect" : [ 0.0, 0.0, 0.0, 0.0 ],
		"openinpresentation" : 0,
		"default_fontsize" : 10.0,
		"default_fontface" : 0,
		"default_fontname" : "Arial",
		"gridonopen" : 0,
		"gridsize" : [ 15.0, 15.0 ],
		"gridsnaponopen" : 0,
		"toolbarvisible" : 1,
		"boxanimatetime" : 200,
		"imprint" : 0,
		"enablehscroll" : 1,
		"enablevscroll" : 1,
		"devicewidth" : 0.0,
		"boxes" : [ 			{
				"box" : 				{
					"maxclass" : "flonum",
					"outlettype" : [ "float", "bang" ],
					"patching_rect" : [ 330.0, 30.0, 50.0, 18.0 ],
					"id" : "obj-31",
					"fontsize" : 10.0,
					"numinlets" : 1,
					"numoutlets" : 2,
					"fontname" : "Arial"
				}

			}
, 			{
				"box" : 				{
					"maxclass" : "newobj",
					"text" : "prepend rate",
					"outlettype" : [ "" ],
					"patching_rect" : [ 330.0, 60.0, 67.0, 18.0 ],
					"id" : "obj-17",
					"fontsize" : 10.0,
					"numinlets" : 1,
					"numoutlets" : 1,
					"fontname" : "Arial"
				}

			}
, 			{
				"box" : 				{
					"maxclass" : "newobj",
					"text" : "s numBlobs",
					"patching_rect" : [ 150.0, 420.0, 63.0, 18.0 ],
					"id" : "obj-13",
					"fontsize" : 10.0,
					"numinlets" : 1,
					"numoutlets" : 0,
					"fontname" : "Arial"
				}

			}
, 			{
				"box" : 				{
					"maxclass" : "comment",
					"text" : "blob size threshold",
					"patching_rect" : [ 150.0, 300.0, 93.0, 18.0 ],
					"id" : "obj-23",
					"fontsize" : 10.0,
					"numinlets" : 1,
					"numoutlets" : 0,
					"fontname" : "Arial"
				}

			}
, 			{
				"box" : 				{
					"maxclass" : "number",
					"outlettype" : [ "int", "bang" ],
					"patching_rect" : [ 150.0, 330.0, 50.0, 18.0 ],
					"id" : "obj-15",
					"fontsize" : 10.0,
					"numinlets" : 1,
					"numoutlets" : 2,
					"fontname" : "Arial"
				}

			}
, 			{
				"box" : 				{
					"maxclass" : "newobj",
					"text" : "prepend threshold",
					"outlettype" : [ "" ],
					"patching_rect" : [ 150.0, 360.0, 91.0, 18.0 ],
					"id" : "obj-10",
					"fontsize" : 10.0,
					"numinlets" : 1,
					"numoutlets" : 1,
					"fontname" : "Arial"
				}

			}
, 			{
				"box" : 				{
					"maxclass" : "jit.pwindow",
					"outlettype" : [ "", "" ],
					"border" : 1.0,
					"patching_rect" : [ 45.0, 150.0, 90.0, 67.5 ],
					"id" : "obj-4",
					"numinlets" : 1,
					"numoutlets" : 2
				}

			}
, 			{
				"box" : 				{
					"maxclass" : "message",
					"text" : "close",
					"outlettype" : [ "" ],
					"patching_rect" : [ 135.0, 30.0, 34.0, 16.0 ],
					"id" : "obj-7",
					"fontsize" : 10.0,
					"numinlets" : 2,
					"numoutlets" : 1,
					"fontname" : "Arial"
				}

			}
, 			{
				"box" : 				{
					"maxclass" : "comment",
					"text" : "send to subpatch",
					"patching_rect" : [ 120.0, 450.0, 86.0, 18.0 ],
					"id" : "obj-38",
					"fontsize" : 10.0,
					"numinlets" : 1,
					"numoutlets" : 0,
					"fontname" : "Arial"
				}

			}
, 			{
				"box" : 				{
					"maxclass" : "newobj",
					"text" : "s xyCoords",
					"patching_rect" : [ 45.0, 450.0, 61.0, 18.0 ],
					"id" : "obj-36",
					"fontsize" : 10.0,
					"numinlets" : 1,
					"numoutlets" : 0,
					"fontname" : "Arial"
				}

			}
, 			{
				"box" : 				{
					"maxclass" : "message",
					"text" : "open",
					"outlettype" : [ "" ],
					"patching_rect" : [ 90.0, 30.0, 33.0, 16.0 ],
					"id" : "obj-32",
					"fontsize" : 10.0,
					"numinlets" : 2,
					"numoutlets" : 1,
					"fontname" : "Arial"
				}

			}
, 			{
				"box" : 				{
					"maxclass" : "toggle",
					"outlettype" : [ "int" ],
					"patching_rect" : [ 30.0, 30.0, 20.0, 20.0 ],
					"id" : "obj-29",
					"numinlets" : 1,
					"numoutlets" : 1
				}

			}
, 			{
				"box" : 				{
					"maxclass" : "newobj",
					"text" : "qmetro 33",
					"outlettype" : [ "bang" ],
					"patching_rect" : [ 30.0, 60.0, 56.0, 18.0 ],
					"id" : "obj-30",
					"fontsize" : 10.0,
					"numinlets" : 2,
					"numoutlets" : 1,
					"fontname" : "Arial"
				}

			}
, 			{
				"box" : 				{
					"maxclass" : "newobj",
					"text" : "jit.qt.grab",
					"outlettype" : [ "jit_matrix", "" ],
					"patching_rect" : [ 30.0, 90.0, 52.0, 18.0 ],
					"id" : "obj-28",
					"fontsize" : 10.0,
					"numinlets" : 1,
					"numoutlets" : 2,
					"fontname" : "Arial"
				}

			}
, 			{
				"box" : 				{
					"maxclass" : "comment",
					"text" : "utility for visualizing the blobs",
					"patching_rect" : [ 285.0, 480.0, 145.0, 18.0 ],
					"id" : "obj-26",
					"fontsize" : 10.0,
					"numinlets" : 1,
					"numoutlets" : 0,
					"fontname" : "Arial"
				}

			}
, 			{
				"box" : 				{
					"maxclass" : "comment",
					"text" : "look for center of blob-mass",
					"patching_rect" : [ 285.0, 420.0, 138.0, 18.0 ],
					"id" : "obj-25",
					"fontsize" : 10.0,
					"numinlets" : 1,
					"numoutlets" : 0,
					"fontname" : "Arial"
				}

			}
, 			{
				"box" : 				{
					"maxclass" : "comment",
					"text" : "converts to format required for blob-tracking",
					"patching_rect" : [ 285.0, 390.0, 207.0, 18.0 ],
					"id" : "obj-24",
					"fontsize" : 10.0,
					"numinlets" : 1,
					"numoutlets" : 0,
					"fontname" : "Arial"
				}

			}
, 			{
				"box" : 				{
					"maxclass" : "jit.pwindow",
					"outlettype" : [ "", "" ],
					"border" : 1.0,
					"patching_rect" : [ 30.0, 510.0, 389.0, 291.75 ],
					"id" : "obj-22",
					"numinlets" : 1,
					"numoutlets" : 2
				}

			}
, 			{
				"box" : 				{
					"maxclass" : "newobj",
					"text" : "cv.jit.blobs.centroids.draw",
					"outlettype" : [ "jit_matrix" ],
					"patching_rect" : [ 30.0, 480.0, 243.0, 18.0 ],
					"id" : "obj-21",
					"fontsize" : 10.0,
					"numinlets" : 2,
					"numoutlets" : 1,
					"fontname" : "Arial"
				}

			}
, 			{
				"box" : 				{
					"maxclass" : "newobj",
					"text" : "cv.jit.label @charmode 1 @threshold 20",
					"outlettype" : [ "jit_matrix", "" ],
					"patching_rect" : [ 30.0, 390.0, 187.0, 18.0 ],
					"id" : "obj-20",
					"fontsize" : 10.0,
					"numinlets" : 1,
					"numoutlets" : 2,
					"fontname" : "Arial"
				}

			}
, 			{
				"box" : 				{
					"maxclass" : "jit.pwindow",
					"outlettype" : [ "", "" ],
					"border" : 1.0,
					"patching_rect" : [ 45.0, 300.0, 90.0, 67.5 ],
					"id" : "obj-19",
					"numinlets" : 1,
					"numoutlets" : 2
				}

			}
, 			{
				"box" : 				{
					"maxclass" : "comment",
					"text" : "convert to binary (black or white only) -- white blobs will return with coordinates",
					"patching_rect" : [ 150.0, 255.0, 362.0, 18.0 ],
					"id" : "obj-18",
					"fontsize" : 10.0,
					"numinlets" : 1,
					"numoutlets" : 0,
					"fontname" : "Arial"
				}

			}
, 			{
				"box" : 				{
					"maxclass" : "comment",
					"text" : "threshold (0-255)",
					"patching_rect" : [ 120.0, 225.0, 95.0, 18.0 ],
					"id" : "obj-16",
					"fontsize" : 10.0,
					"numinlets" : 1,
					"numoutlets" : 0,
					"fontname" : "Arial"
				}

			}
, 			{
				"box" : 				{
					"maxclass" : "number",
					"outlettype" : [ "int", "bang" ],
					"patching_rect" : [ 60.0, 225.0, 50.0, 18.0 ],
					"id" : "obj-14",
					"fontsize" : 10.0,
					"numinlets" : 1,
					"minimum" : 0,
					"maximum" : 255,
					"numoutlets" : 2,
					"fontname" : "Arial"
				}

			}
, 			{
				"box" : 				{
					"maxclass" : "newobj",
					"text" : "jit.op @op < @val 10",
					"outlettype" : [ "jit_matrix", "" ],
					"patching_rect" : [ 30.0, 255.0, 104.0, 18.0 ],
					"id" : "obj-12",
					"fontsize" : 10.0,
					"numinlets" : 2,
					"numoutlets" : 2,
					"fontname" : "Arial"
				}

			}
, 			{
				"box" : 				{
					"maxclass" : "comment",
					"text" : "convert to grayscale to make blob-tracking easier",
					"patching_rect" : [ 105.0, 120.0, 231.0, 18.0 ],
					"id" : "obj-11",
					"fontsize" : 10.0,
					"numinlets" : 1,
					"numoutlets" : 0,
					"fontname" : "Arial"
				}

			}
, 			{
				"box" : 				{
					"maxclass" : "newobj",
					"text" : "jit.rgb2luma",
					"outlettype" : [ "jit_matrix", "" ],
					"patching_rect" : [ 30.0, 120.0, 62.0, 18.0 ],
					"id" : "obj-9",
					"fontsize" : 10.0,
					"numinlets" : 1,
					"numoutlets" : 2,
					"fontname" : "Arial"
				}

			}
, 			{
				"box" : 				{
					"maxclass" : "toggle",
					"outlettype" : [ "int" ],
					"patching_rect" : [ 225.0, 30.0, 20.0, 20.0 ],
					"id" : "obj-8",
					"numinlets" : 1,
					"numoutlets" : 1
				}

			}
, 			{
				"box" : 				{
					"maxclass" : "message",
					"text" : "read",
					"outlettype" : [ "" ],
					"patching_rect" : [ 285.0, 30.0, 32.5, 16.0 ],
					"id" : "obj-5",
					"fontsize" : 10.0,
					"numinlets" : 2,
					"numoutlets" : 1,
					"fontname" : "Arial"
				}

			}
, 			{
				"box" : 				{
					"maxclass" : "newobj",
					"text" : "jit.qt.movie 320 240 @vol 0.",
					"outlettype" : [ "jit_matrix", "" ],
					"patching_rect" : [ 225.0, 90.0, 134.0, 18.0 ],
					"id" : "obj-3",
					"fontsize" : 10.0,
					"numinlets" : 1,
					"numoutlets" : 2,
					"fontname" : "Arial"
				}

			}
, 			{
				"box" : 				{
					"maxclass" : "newobj",
					"text" : "qmetro 33",
					"outlettype" : [ "bang" ],
					"patching_rect" : [ 225.0, 60.0, 56.0, 18.0 ],
					"id" : "obj-2",
					"fontsize" : 10.0,
					"numinlets" : 2,
					"numoutlets" : 1,
					"fontname" : "Arial"
				}

			}
, 			{
				"box" : 				{
					"maxclass" : "newobj",
					"text" : "cv.jit.blobs.centroids",
					"outlettype" : [ "jit_matrix", "" ],
					"patching_rect" : [ 30.0, 420.0, 100.0, 18.0 ],
					"id" : "obj-1",
					"fontsize" : 10.0,
					"numinlets" : 1,
					"numoutlets" : 2,
					"fontname" : "Arial"
				}

			}
 ],
		"lines" : [ 			{
				"patchline" : 				{
					"source" : [ "obj-7", 0 ],
					"destination" : [ "obj-28", 0 ],
					"hidden" : 0,
					"midpoints" : [ 144.5, 84.5, 39.5, 84.5 ]
				}

			}
, 			{
				"patchline" : 				{
					"source" : [ "obj-8", 0 ],
					"destination" : [ "obj-2", 0 ],
					"hidden" : 0,
					"midpoints" : [  ]
				}

			}
, 			{
				"patchline" : 				{
					"source" : [ "obj-20", 0 ],
					"destination" : [ "obj-1", 0 ],
					"hidden" : 0,
					"midpoints" : [  ]
				}

			}
, 			{
				"patchline" : 				{
					"source" : [ "obj-1", 0 ],
					"destination" : [ "obj-21", 0 ],
					"hidden" : 0,
					"midpoints" : [  ]
				}

			}
, 			{
				"patchline" : 				{
					"source" : [ "obj-29", 0 ],
					"destination" : [ "obj-30", 0 ],
					"hidden" : 0,
					"midpoints" : [  ]
				}

			}
, 			{
				"patchline" : 				{
					"source" : [ "obj-30", 0 ],
					"destination" : [ "obj-28", 0 ],
					"hidden" : 0,
					"midpoints" : [  ]
				}

			}
, 			{
				"patchline" : 				{
					"source" : [ "obj-28", 0 ],
					"destination" : [ "obj-9", 0 ],
					"hidden" : 0,
					"midpoints" : [ 39.5, 113.5, 39.5, 113.5 ]
				}

			}
, 			{
				"patchline" : 				{
					"source" : [ "obj-32", 0 ],
					"destination" : [ "obj-28", 0 ],
					"hidden" : 0,
					"midpoints" : [ 99.5, 84.5, 39.5, 84.5 ]
				}

			}
, 			{
				"patchline" : 				{
					"source" : [ "obj-1", 0 ],
					"destination" : [ "obj-36", 0 ],
					"hidden" : 0,
					"midpoints" : [ 39.5, 443.5, 54.5, 443.5 ]
				}

			}
, 			{
				"patchline" : 				{
					"source" : [ "obj-12", 0 ],
					"destination" : [ "obj-21", 1 ],
					"hidden" : 0,
					"midpoints" : [ 39.5, 286.5, 263.5, 286.5 ]
				}

			}
, 			{
				"patchline" : 				{
					"source" : [ "obj-12", 0 ],
					"destination" : [ "obj-20", 0 ],
					"hidden" : 0,
					"midpoints" : [  ]
				}

			}
, 			{
				"patchline" : 				{
					"source" : [ "obj-12", 0 ],
					"destination" : [ "obj-19", 0 ],
					"hidden" : 0,
					"midpoints" : [ 39.5, 286.0, 54.5, 286.0 ]
				}

			}
, 			{
				"patchline" : 				{
					"source" : [ "obj-14", 0 ],
					"destination" : [ "obj-12", 0 ],
					"hidden" : 0,
					"midpoints" : [ 69.5, 248.5, 39.5, 248.5 ]
				}

			}
, 			{
				"patchline" : 				{
					"source" : [ "obj-9", 0 ],
					"destination" : [ "obj-12", 0 ],
					"hidden" : 0,
					"midpoints" : [  ]
				}

			}
, 			{
				"patchline" : 				{
					"source" : [ "obj-3", 0 ],
					"destination" : [ "obj-9", 0 ],
					"hidden" : 0,
					"midpoints" : [ 234.5, 113.5, 39.5, 113.5 ]
				}

			}
, 			{
				"patchline" : 				{
					"source" : [ "obj-5", 0 ],
					"destination" : [ "obj-3", 0 ],
					"hidden" : 0,
					"midpoints" : [ 294.5, 82.5, 234.5, 82.5 ]
				}

			}
, 			{
				"patchline" : 				{
					"source" : [ "obj-2", 0 ],
					"destination" : [ "obj-3", 0 ],
					"hidden" : 0,
					"midpoints" : [  ]
				}

			}
, 			{
				"patchline" : 				{
					"source" : [ "obj-9", 0 ],
					"destination" : [ "obj-4", 0 ],
					"hidden" : 0,
					"midpoints" : [ 39.5, 143.5, 54.5, 143.5 ]
				}

			}
, 			{
				"patchline" : 				{
					"source" : [ "obj-15", 0 ],
					"destination" : [ "obj-10", 0 ],
					"hidden" : 0,
					"midpoints" : [  ]
				}

			}
, 			{
				"patchline" : 				{
					"source" : [ "obj-10", 0 ],
					"destination" : [ "obj-20", 0 ],
					"hidden" : 0,
					"midpoints" : [ 159.5, 383.5, 39.5, 383.5 ]
				}

			}
, 			{
				"patchline" : 				{
					"source" : [ "obj-20", 0 ],
					"destination" : [ "obj-13", 0 ],
					"hidden" : 0,
					"midpoints" : [ 39.5, 413.5, 159.5, 413.5 ]
				}

			}
, 			{
				"patchline" : 				{
					"source" : [ "obj-17", 0 ],
					"destination" : [ "obj-3", 0 ],
					"hidden" : 0,
					"midpoints" : [ 339.5, 82.5, 234.5, 82.5 ]
				}

			}
, 			{
				"patchline" : 				{
					"source" : [ "obj-31", 0 ],
					"destination" : [ "obj-17", 0 ],
					"hidden" : 0,
					"midpoints" : [  ]
				}

			}
, 			{
				"patchline" : 				{
					"source" : [ "obj-21", 0 ],
					"destination" : [ "obj-22", 0 ],
					"hidden" : 0,
					"midpoints" : [  ]
				}

			}
 ]
	}

}
