{
	"patcher" : 	{
		"fileversion" : 1,
		"rect" : [ 445.0, 44.0, 944.0, 508.0 ],
		"bglocked" : 0,
		"defrect" : [ 445.0, 44.0, 944.0, 508.0 ],
		"openrect" : [ 0.0, 0.0, 0.0, 0.0 ],
		"openinpresentation" : 0,
		"default_fontsize" : 10.0,
		"default_fontface" : 0,
		"default_fontname" : "Arial",
		"gridonopen" : 0,
		"gridsize" : [ 15.0, 15.0 ],
		"gridsnaponopen" : 0,
		"toolbarvisible" : 1,
		"boxanimatetime" : 200,
		"imprint" : 0,
		"enablehscroll" : 1,
		"enablevscroll" : 1,
		"devicewidth" : 0.0,
		"boxes" : [ 			{
				"box" : 				{
					"maxclass" : "comment",
					"text" : "To create the other operators, select the entire \"+\" setup, then Option-click and drag to duplicate, then change the operator.",
					"linecount" : 4,
					"numoutlets" : 0,
					"patching_rect" : [ 735.0, 150.0, 173.0, 52.0 ],
					"id" : "obj-68",
					"fontname" : "Arial",
					"numinlets" : 1,
					"fontsize" : 10.0
				}

			}
, 			{
				"box" : 				{
					"maxclass" : "newobj",
					"text" : "t b i",
					"numoutlets" : 2,
					"outlettype" : [ "bang", "int" ],
					"patching_rect" : [ 675.0, 180.0, 30.0, 18.0 ],
					"id" : "obj-63",
					"fontname" : "Arial",
					"numinlets" : 1,
					"fontsize" : 10.0
				}

			}
, 			{
				"box" : 				{
					"maxclass" : "button",
					"numoutlets" : 1,
					"outlettype" : [ "bang" ],
					"patching_rect" : [ 675.0, 210.0, 20.0, 20.0 ],
					"id" : "obj-64",
					"numinlets" : 1
				}

			}
, 			{
				"box" : 				{
					"maxclass" : "newobj",
					"text" : "/ 0",
					"numoutlets" : 1,
					"outlettype" : [ "int" ],
					"patching_rect" : [ 630.0, 240.0, 35.0, 18.0 ],
					"id" : "obj-65",
					"fontname" : "Arial",
					"numinlets" : 2,
					"fontsize" : 10.0
				}

			}
, 			{
				"box" : 				{
					"maxclass" : "number",
					"numoutlets" : 2,
					"outlettype" : [ "int", "bang" ],
					"patching_rect" : [ 675.0, 150.0, 41.0, 18.0 ],
					"id" : "obj-66",
					"fontname" : "Arial",
					"numinlets" : 1,
					"fontsize" : 10.0
				}

			}
, 			{
				"box" : 				{
					"maxclass" : "number",
					"numoutlets" : 2,
					"outlettype" : [ "int", "bang" ],
					"patching_rect" : [ 630.0, 150.0, 41.0, 18.0 ],
					"id" : "obj-67",
					"fontname" : "Arial",
					"numinlets" : 1,
					"fontsize" : 10.0
				}

			}
, 			{
				"box" : 				{
					"maxclass" : "newobj",
					"text" : "t b i",
					"numoutlets" : 2,
					"outlettype" : [ "bang", "int" ],
					"patching_rect" : [ 570.0, 180.0, 30.0, 18.0 ],
					"id" : "obj-58",
					"fontname" : "Arial",
					"numinlets" : 1,
					"fontsize" : 10.0
				}

			}
, 			{
				"box" : 				{
					"maxclass" : "button",
					"numoutlets" : 1,
					"outlettype" : [ "bang" ],
					"patching_rect" : [ 570.0, 210.0, 20.0, 20.0 ],
					"id" : "obj-59",
					"numinlets" : 1
				}

			}
, 			{
				"box" : 				{
					"maxclass" : "newobj",
					"text" : "* 0",
					"numoutlets" : 1,
					"outlettype" : [ "int" ],
					"patching_rect" : [ 525.0, 240.0, 35.0, 18.0 ],
					"id" : "obj-60",
					"fontname" : "Arial",
					"numinlets" : 2,
					"fontsize" : 10.0
				}

			}
, 			{
				"box" : 				{
					"maxclass" : "number",
					"numoutlets" : 2,
					"outlettype" : [ "int", "bang" ],
					"patching_rect" : [ 570.0, 150.0, 41.0, 18.0 ],
					"id" : "obj-61",
					"fontname" : "Arial",
					"numinlets" : 1,
					"fontsize" : 10.0
				}

			}
, 			{
				"box" : 				{
					"maxclass" : "number",
					"numoutlets" : 2,
					"outlettype" : [ "int", "bang" ],
					"patching_rect" : [ 525.0, 150.0, 41.0, 18.0 ],
					"id" : "obj-62",
					"fontname" : "Arial",
					"numinlets" : 1,
					"fontsize" : 10.0
				}

			}
, 			{
				"box" : 				{
					"maxclass" : "newobj",
					"text" : "t b i",
					"numoutlets" : 2,
					"outlettype" : [ "bang", "int" ],
					"patching_rect" : [ 465.0, 180.0, 30.0, 18.0 ],
					"id" : "obj-53",
					"fontname" : "Arial",
					"numinlets" : 1,
					"fontsize" : 10.0
				}

			}
, 			{
				"box" : 				{
					"maxclass" : "button",
					"numoutlets" : 1,
					"outlettype" : [ "bang" ],
					"patching_rect" : [ 465.0, 210.0, 20.0, 20.0 ],
					"id" : "obj-54",
					"numinlets" : 1
				}

			}
, 			{
				"box" : 				{
					"maxclass" : "newobj",
					"text" : "- 0",
					"numoutlets" : 1,
					"outlettype" : [ "int" ],
					"patching_rect" : [ 420.0, 240.0, 35.0, 18.0 ],
					"id" : "obj-55",
					"fontname" : "Arial",
					"numinlets" : 2,
					"fontsize" : 10.0
				}

			}
, 			{
				"box" : 				{
					"maxclass" : "number",
					"numoutlets" : 2,
					"outlettype" : [ "int", "bang" ],
					"patching_rect" : [ 465.0, 150.0, 41.0, 18.0 ],
					"id" : "obj-56",
					"fontname" : "Arial",
					"numinlets" : 1,
					"fontsize" : 10.0
				}

			}
, 			{
				"box" : 				{
					"maxclass" : "number",
					"numoutlets" : 2,
					"outlettype" : [ "int", "bang" ],
					"patching_rect" : [ 420.0, 150.0, 41.0, 18.0 ],
					"id" : "obj-57",
					"fontname" : "Arial",
					"numinlets" : 1,
					"fontsize" : 10.0
				}

			}
, 			{
				"box" : 				{
					"maxclass" : "comment",
					"text" : "For example:\n5 + 2 = 7\n\nhowever...\n5 - 2 = 3, while\n2 - 5 = -3",
					"linecount" : 6,
					"numoutlets" : 0,
					"patching_rect" : [ 210.0, 285.0, 111.0, 75.0 ],
					"id" : "obj-52",
					"fontname" : "Arial",
					"numinlets" : 1,
					"fontsize" : 10.0
				}

			}
, 			{
				"box" : 				{
					"maxclass" : "newobj",
					"text" : "t b i",
					"numoutlets" : 2,
					"outlettype" : [ "bang", "int" ],
					"patching_rect" : [ 390.0, 60.0, 30.0, 18.0 ],
					"id" : "obj-51",
					"fontname" : "Arial",
					"numinlets" : 1,
					"fontsize" : 10.0
				}

			}
, 			{
				"box" : 				{
					"maxclass" : "button",
					"numoutlets" : 1,
					"outlettype" : [ "bang" ],
					"patching_rect" : [ 390.0, 90.0, 20.0, 20.0 ],
					"id" : "obj-47",
					"numinlets" : 1
				}

			}
, 			{
				"box" : 				{
					"maxclass" : "comment",
					"text" : "While you could rebuild the patch for floats (decimals), simply copy and paste the int version:\n\rCreate a float number box and copy it, then select all the int boxes and click on Edit, Paste Replace.\n\nBe sure to change the math objects to floats as well (add a period to the end of the \"0\", otherwise answers will be converted to ints.\n\nThis is essentially a rounding process, but it isn't entirely reliable.",
					"linecount" : 14,
					"numoutlets" : 0,
					"patching_rect" : [ 690.0, 270.0, 210.0, 167.0 ],
					"id" : "obj-1",
					"fontname" : "Arial",
					"numinlets" : 1,
					"fontsize" : 10.0
				}

			}
, 			{
				"box" : 				{
					"maxclass" : "comment",
					"text" : "All outputs from math objects run to the same number box, overriding when the previous number",
					"linecount" : 4,
					"numoutlets" : 0,
					"patching_rect" : [ 420.0, 360.0, 126.0, 52.0 ],
					"id" : "obj-2",
					"fontname" : "Arial",
					"numinlets" : 1,
					"fontsize" : 10.0
				}

			}
, 			{
				"box" : 				{
					"maxclass" : "comment",
					"text" : "The \"t\" object (short for trigger) sends the number first, then a bang to trigger the calculation.  While the bang below is only for demonstration, the right-to-left ordering is, in this case, crucial.",
					"linecount" : 8,
					"numoutlets" : 0,
					"patching_rect" : [ 450.0, 30.0, 133.0, 98.0 ],
					"id" : "obj-3",
					"fontname" : "Arial",
					"numinlets" : 1,
					"fontsize" : 10.0
				}

			}
, 			{
				"box" : 				{
					"maxclass" : "comment",
					"text" : "While it doesn't matter for + and *, remember that the number in the right inlet is subtracted from the left;\rfor / the number in the left is divided by the number in the right, changing the results depending on which box the numbers are put in.",
					"linecount" : 9,
					"numoutlets" : 0,
					"patching_rect" : [ 210.0, 165.0, 138.0, 110.0 ],
					"id" : "obj-4",
					"fontname" : "Arial",
					"numinlets" : 1,
					"fontsize" : 10.0
				}

			}
, 			{
				"box" : 				{
					"maxclass" : "number",
					"numoutlets" : 2,
					"outlettype" : [ "int", "bang" ],
					"patching_rect" : [ 360.0, 360.0, 41.0, 18.0 ],
					"id" : "obj-35",
					"fontname" : "Arial",
					"numinlets" : 1,
					"fontsize" : 10.0
				}

			}
, 			{
				"box" : 				{
					"maxclass" : "newobj",
					"text" : "+ 0",
					"numoutlets" : 1,
					"outlettype" : [ "int" ],
					"patching_rect" : [ 345.0, 120.0, 37.0, 18.0 ],
					"id" : "obj-36",
					"fontname" : "Arial",
					"numinlets" : 2,
					"fontsize" : 10.0
				}

			}
, 			{
				"box" : 				{
					"maxclass" : "number",
					"numoutlets" : 2,
					"outlettype" : [ "int", "bang" ],
					"patching_rect" : [ 390.0, 30.0, 41.0, 18.0 ],
					"id" : "obj-37",
					"fontname" : "Arial",
					"numinlets" : 1,
					"fontsize" : 10.0
				}

			}
, 			{
				"box" : 				{
					"maxclass" : "number",
					"numoutlets" : 2,
					"outlettype" : [ "int", "bang" ],
					"patching_rect" : [ 345.0, 30.0, 41.0, 18.0 ],
					"id" : "obj-38",
					"fontname" : "Arial",
					"numinlets" : 1,
					"fontsize" : 10.0
				}

			}
, 			{
				"box" : 				{
					"maxclass" : "comment",
					"text" : "Create an int and a float version",
					"numoutlets" : 0,
					"patching_rect" : [ 30.0, 120.0, 150.0, 18.0 ],
					"id" : "obj-39",
					"fontname" : "Arial",
					"numinlets" : 1,
					"fontsize" : 10.0
				}

			}
, 			{
				"box" : 				{
					"maxclass" : "comment",
					"text" : "- - - - - - - -",
					"numoutlets" : 0,
					"patching_rect" : [ 30.0, 225.0, 110.0, 18.0 ],
					"id" : "obj-40",
					"fontname" : "Arial",
					"numinlets" : 1,
					"fontsize" : 10.0
				}

			}
, 			{
				"box" : 				{
					"maxclass" : "comment",
					"text" : "HINT: remember right to left ordering",
					"linecount" : 2,
					"numoutlets" : 0,
					"patching_rect" : [ 30.0, 255.0, 132.0, 29.0 ],
					"id" : "obj-42",
					"fontname" : "Arial",
					"numinlets" : 1,
					"fontsize" : 10.0
				}

			}
, 			{
				"box" : 				{
					"maxclass" : "comment",
					"text" : "Include comments to explain how the patch works; this is good coding practice for you to remember, and for others who may read your code later.",
					"linecount" : 5,
					"numoutlets" : 0,
					"patching_rect" : [ 30.0, 150.0, 147.0, 64.0 ],
					"id" : "obj-43",
					"fontname" : "Arial",
					"numinlets" : 1,
					"fontsize" : 10.0
				}

			}
, 			{
				"box" : 				{
					"maxclass" : "comment",
					"text" : "CALCULATOR",
					"numoutlets" : 0,
					"patching_rect" : [ 30.0, 30.0, 112.0, 18.0 ],
					"id" : "obj-44",
					"fontname" : "Arial",
					"numinlets" : 1,
					"fontsize" : 10.0
				}

			}
, 			{
				"box" : 				{
					"maxclass" : "comment",
					"text" : "Make a calculator capable of addition, subtraction, multiplication, and division of two numbers",
					"linecount" : 4,
					"numoutlets" : 0,
					"patching_rect" : [ 30.0, 60.0, 144.0, 52.0 ],
					"id" : "obj-45",
					"fontname" : "Arial",
					"numinlets" : 1,
					"fontsize" : 10.0
				}

			}
, 			{
				"box" : 				{
					"maxclass" : "comment",
					"text" : "Number boxes (int or float, depending)",
					"linecount" : 2,
					"numoutlets" : 0,
					"patching_rect" : [ 210.0, 30.0, 100.0, 29.0 ],
					"id" : "obj-46",
					"fontname" : "Arial",
					"numinlets" : 1,
					"fontsize" : 10.0
				}

			}
 ],
		"lines" : [ 			{
				"patchline" : 				{
					"source" : [ "obj-51", 0 ],
					"destination" : [ "obj-47", 0 ],
					"hidden" : 0,
					"midpoints" : [  ]
				}

			}
, 			{
				"patchline" : 				{
					"source" : [ "obj-47", 0 ],
					"destination" : [ "obj-36", 0 ],
					"hidden" : 0,
					"midpoints" : [ 399.5, 114.0, 354.5, 114.0 ]
				}

			}
, 			{
				"patchline" : 				{
					"source" : [ "obj-63", 0 ],
					"destination" : [ "obj-64", 0 ],
					"hidden" : 0,
					"midpoints" : [  ]
				}

			}
, 			{
				"patchline" : 				{
					"source" : [ "obj-64", 0 ],
					"destination" : [ "obj-65", 0 ],
					"hidden" : 0,
					"midpoints" : [ 684.5, 234.0, 639.5, 234.0 ]
				}

			}
, 			{
				"patchline" : 				{
					"source" : [ "obj-58", 0 ],
					"destination" : [ "obj-59", 0 ],
					"hidden" : 0,
					"midpoints" : [  ]
				}

			}
, 			{
				"patchline" : 				{
					"source" : [ "obj-59", 0 ],
					"destination" : [ "obj-60", 0 ],
					"hidden" : 0,
					"midpoints" : [ 579.5, 234.0, 534.5, 234.0 ]
				}

			}
, 			{
				"patchline" : 				{
					"source" : [ "obj-53", 0 ],
					"destination" : [ "obj-54", 0 ],
					"hidden" : 0,
					"midpoints" : [  ]
				}

			}
, 			{
				"patchline" : 				{
					"source" : [ "obj-54", 0 ],
					"destination" : [ "obj-55", 0 ],
					"hidden" : 0,
					"midpoints" : [ 474.5, 234.0, 429.5, 234.0 ]
				}

			}
, 			{
				"patchline" : 				{
					"source" : [ "obj-36", 0 ],
					"destination" : [ "obj-35", 0 ],
					"hidden" : 0,
					"midpoints" : [ 354.5, 150.0, 369.5, 150.0 ]
				}

			}
, 			{
				"patchline" : 				{
					"source" : [ "obj-55", 0 ],
					"destination" : [ "obj-35", 0 ],
					"hidden" : 0,
					"midpoints" : [ 429.5, 345.0, 369.5, 345.0 ]
				}

			}
, 			{
				"patchline" : 				{
					"source" : [ "obj-60", 0 ],
					"destination" : [ "obj-35", 0 ],
					"hidden" : 0,
					"midpoints" : [ 534.5, 345.0, 369.5, 345.0 ]
				}

			}
, 			{
				"patchline" : 				{
					"source" : [ "obj-65", 0 ],
					"destination" : [ "obj-35", 0 ],
					"hidden" : 0,
					"midpoints" : [ 639.5, 345.0, 369.5, 345.0 ]
				}

			}
, 			{
				"patchline" : 				{
					"source" : [ "obj-66", 0 ],
					"destination" : [ "obj-63", 0 ],
					"hidden" : 0,
					"midpoints" : [  ]
				}

			}
, 			{
				"patchline" : 				{
					"source" : [ "obj-67", 0 ],
					"destination" : [ "obj-65", 0 ],
					"hidden" : 0,
					"midpoints" : [  ]
				}

			}
, 			{
				"patchline" : 				{
					"source" : [ "obj-61", 0 ],
					"destination" : [ "obj-58", 0 ],
					"hidden" : 0,
					"midpoints" : [  ]
				}

			}
, 			{
				"patchline" : 				{
					"source" : [ "obj-62", 0 ],
					"destination" : [ "obj-60", 0 ],
					"hidden" : 0,
					"midpoints" : [  ]
				}

			}
, 			{
				"patchline" : 				{
					"source" : [ "obj-56", 0 ],
					"destination" : [ "obj-53", 0 ],
					"hidden" : 0,
					"midpoints" : [  ]
				}

			}
, 			{
				"patchline" : 				{
					"source" : [ "obj-57", 0 ],
					"destination" : [ "obj-55", 0 ],
					"hidden" : 0,
					"midpoints" : [  ]
				}

			}
, 			{
				"patchline" : 				{
					"source" : [ "obj-37", 0 ],
					"destination" : [ "obj-51", 0 ],
					"hidden" : 0,
					"midpoints" : [  ]
				}

			}
, 			{
				"patchline" : 				{
					"source" : [ "obj-38", 0 ],
					"destination" : [ "obj-36", 0 ],
					"hidden" : 0,
					"midpoints" : [  ]
				}

			}
, 			{
				"patchline" : 				{
					"source" : [ "obj-63", 1 ],
					"destination" : [ "obj-65", 1 ],
					"hidden" : 0,
					"midpoints" : [ 695.5, 204.0, 655.5, 204.0 ]
				}

			}
, 			{
				"patchline" : 				{
					"source" : [ "obj-58", 1 ],
					"destination" : [ "obj-60", 1 ],
					"hidden" : 0,
					"midpoints" : [ 590.5, 204.0, 550.5, 204.0 ]
				}

			}
, 			{
				"patchline" : 				{
					"source" : [ "obj-53", 1 ],
					"destination" : [ "obj-55", 1 ],
					"hidden" : 0,
					"midpoints" : [ 485.5, 204.0, 445.5, 204.0 ]
				}

			}
, 			{
				"patchline" : 				{
					"source" : [ "obj-51", 1 ],
					"destination" : [ "obj-36", 1 ],
					"hidden" : 0,
					"midpoints" : [ 410.5, 84.0, 372.5, 84.0 ]
				}

			}
 ]
	}

}
